<?xml version="1.0" standalone="no"?>
<!DOCTYPE svg PUBLIC "-//W3C//DTD SVG 20010904//EN"
 "http://www.w3.org/TR/2001/REC-SVG-20010904/DTD/svg10.dtd">
<svg version="1.0" xmlns="http://www.w3.org/2000/svg"
 width="1500.000000pt" height="1500.000000pt" viewBox="0 0 1500.000000 1500.000000"
 preserveAspectRatio="xMidYMid meet">
<metadata>
Created by potrace 1.14, written by Peter Selinger 2001-2017
</metadata>
<g transform="translate(0.000000,1500.000000) scale(0.100000,-0.100000)"
fill="#000000" stroke="none">
<path d="M8923 11463 c9 -2 23 -2 30 0 6 3 -1 5 -18 5 -16 0 -22 -2 -12 -5z"/>
<path d="M5598 11453 c6 -2 18 -2 25 0 6 3 1 5 -13 5 -14 0 -19 -2 -12 -5z"/>
<path d="M9003 11453 c9 -2 23 -2 30 0 6 3 -1 5 -18 5 -16 0 -22 -2 -12 -5z"/>
<path d="M5543 11443 c9 -2 23 -2 30 0 6 3 -1 5 -18 5 -16 0 -22 -2 -12 -5z"/>
<path d="M9220 11420 c1229 -213 2224 -604 3006 -1181 281 -207 576 -495 768
-747 191 -251 355 -585 426 -867 51 -201 63 -319 57 -573 -4 -195 -9 -245 -31
-352 -214 -1005 -1125 -1879 -2553 -2449 -1195 -476 -2672 -670 -4108 -540
-248 22 -832 96 -1063 134 -1303 214 -2429 682 -3207 1331 -562 470 -909 999
-1031 1574 -22 106 -27 159 -31 343 -7 283 11 432 82 667 274 916 1178 1729
2502 2254 407 161 824 285 1303 385 202 43 214 53 25 21 -390 -66 -824 -167
-1200 -280 -1017 -305 -1867 -741 -2515 -1289 -683 -579 -1099 -1264 -1190
-1963 -18 -133 -8 -608 14 -728 92 -485 323 -946 696 -1385 94 -111 342 -354
480 -471 1041 -884 2707 -1503 4475 -1663 121 -11 315 -27 430 -36 116 -9 251
-20 300 -25 50 -5 243 -17 430 -26 534 -27 1189 -4 1775 61 1603 178 3057 705
4080 1478 711 538 1184 1192 1350 1870 53 217 62 314 57 618 -3 224 -8 293
-25 380 -93 474 -304 905 -642 1315 -102 124 -444 462 -570 565 -495 403
-1060 730 -1703 986 -740 293 -1419 470 -2307 598 -235 34 -285 31 -80 -5z
m-7417 -4956 c26 -20 47 -40 47 -43 0 -4 -34 -48 -74 -98 l-75 -92 206 -167
205 -167 26 33 c14 18 48 61 77 95 l51 62 49 -39 c28 -22 51 -41 53 -43 3 -3
-330 -418 -364 -454 -11 -12 -20 -8 -63 25 -28 21 -51 41 -51 44 0 3 34 46 75
97 l75 91 -78 64 c-42 35 -134 111 -204 167 l-128 103 -20 -23 c-11 -13 -43
-54 -72 -91 -29 -37 -57 -67 -62 -68 -4 0 -30 18 -57 39 l-49 39 187 231 c103
127 190 231 194 231 3 0 27 -16 52 -36z m11662 -191 c99 -124 181 -229 183
-233 2 -4 -20 -26 -49 -49 l-51 -41 -136 170 c-74 93 -136 169 -137 167 -2 -1
11 -116 28 -255 l30 -253 -34 -29 c-19 -16 -39 -29 -46 -30 -7 0 -114 36 -239
80 -125 44 -231 80 -236 80 -5 0 52 -75 126 -167 l135 -168 -27 -23 c-15 -13
-39 -32 -54 -43 l-26 -19 -186 232 c-102 128 -186 235 -186 238 1 3 34 31 74
62 l72 57 240 -88 c131 -49 241 -84 242 -79 2 4 -10 119 -28 254 -22 167 -28
250 -22 256 31 31 128 107 137 107 6 0 91 -102 190 -226z m-10707 -526 c55
-34 62 -42 62 -71 0 -32 -48 -620 -53 -643 -1 -8 -26 3 -64 28 l-62 41 6 77 6
77 -157 102 c-87 56 -161 102 -165 102 -4 0 -32 -13 -62 -30 -30 -16 -60 -30
-67 -30 -20 0 -124 72 -115 81 22 21 589 316 598 311 6 -3 38 -23 73 -45z
m9787 -176 c159 -88 290 -163 292 -168 1 -4 -24 -24 -56 -44 l-59 -37 -61 34
c-34 19 -67 34 -74 33 -6 0 -79 -44 -162 -97 l-150 -97 -5 -83 -5 -83 -55 -34
c-30 -19 -56 -32 -59 -30 -2 3 -49 605 -51 667 0 8 131 96 145 97 6 1 140 -71
300 -158z m-9177 -193 c217 -117 275 -158 298 -215 56 -134 -56 -303 -201
-303 l-27 0 7 -105 7 -105 -70 37 -70 38 -9 99 -8 99 -120 63 c-136 72 -124
73 -172 -21 -14 -27 -27 -51 -28 -53 -2 -2 -30 10 -63 27 l-60 30 141 266 c78
146 146 263 152 261 5 -2 106 -55 223 -118z m8427 -53 c96 -47 167 -163 174
-283 3 -63 0 -80 -24 -127 -14 -30 -43 -69 -65 -87 -21 -18 -132 -82 -248
-141 l-210 -107 -137 266 c-105 206 -134 269 -123 275 33 21 413 212 437 220
43 14 152 5 196 -16z m-7659 -316 l333 -142 -21 -51 c-11 -28 -20 -52 -21 -53
-1 -1 -63 25 -137 57 -74 31 -138 56 -141 54 -3 -2 -48 -102 -99 -223 -103
-245 -84 -225 -177 -184 l-42 18 89 208 c49 115 91 216 94 225 5 14 -20 28
-125 71 -71 30 -132 58 -135 63 -7 12 28 98 41 98 5 0 159 -64 341 -141z
m6992 32 l20 -50 -71 -30 c-40 -16 -103 -42 -140 -56 -38 -16 -66 -33 -64 -39
3 -6 44 -107 91 -225 48 -117 86 -214 84 -216 -5 -5 -108 -45 -117 -45 -4 0
-48 99 -96 220 -49 121 -93 220 -97 220 -5 0 -68 -24 -142 -54 l-133 -53 -22
50 c-11 28 -19 52 -17 55 8 7 661 271 672 272 6 0 21 -22 32 -49z m-6338 -280
c140 -46 272 -94 293 -107 55 -36 73 -83 57 -152 -8 -37 -22 -63 -45 -87 l-34
-33 20 -38 c22 -43 24 -72 8 -127 -23 -85 -105 -135 -194 -118 -72 14 -565
175 -565 185 0 7 138 444 176 555 2 7 10 11 17 8 6 -2 127 -41 267 -86z m5546
-27 c45 -22 98 -84 112 -133 25 -82 10 -153 -45 -212 l-24 -26 81 -69 80 -69
-48 -16 c-104 -35 -101 -36 -177 31 -37 33 -73 60 -80 60 -13 0 -245 -69 -256
-76 -4 -2 4 -39 17 -81 13 -43 24 -79 24 -79 0 -7 -124 -33 -130 -27 -16 18
-173 554 -164 563 5 4 113 40 239 79 246 75 309 84 371 55z m-4762 -193 c163
-38 300 -71 303 -74 3 -3 0 -28 -6 -55 l-12 -48 -239 55 c-132 30 -242 52
-246 49 -12 -13 -32 -123 -23 -129 5 -3 115 -30 245 -59 166 -38 233 -57 230
-66 -3 -7 -8 -29 -12 -48 -3 -20 -11 -36 -16 -36 -6 0 -110 23 -232 50 -121
28 -228 52 -236 53 -10 1 -18 -16 -28 -61 -8 -35 -12 -66 -9 -69 3 -2 110 -29
237 -58 127 -29 234 -55 237 -58 3 -3 0 -28 -7 -55 -11 -50 -12 -50 -43 -42
-18 5 -156 37 -307 71 -151 34 -276 63 -278 64 -5 5 131 585 138 585 3 0 140
-31 304 -69z m4006 -35 c103 -54 160 -158 160 -296 0 -79 -31 -152 -81 -194
-126 -107 -398 -151 -524 -85 -91 46 -147 154 -149 284 -2 151 91 246 289 297
92 23 254 20 305 -6z m-3331 -91 c166 -25 304 -45 307 -45 7 0 -6 -93 -15
-102 -3 -4 -107 9 -231 28 -124 18 -233 34 -242 34 -19 0 -24 -13 -33 -85 l-6
-50 228 -33 c125 -18 236 -36 246 -39 16 -4 18 -11 12 -51 -4 -26 -8 -48 -9
-49 -1 -2 -107 13 -235 32 -128 19 -239 35 -246 35 -14 0 -37 -119 -26 -131 3
-4 103 -21 221 -38 297 -43 270 -35 263 -79 -12 -75 15 -73 -328 -22 l-310 46
2 24 c3 32 72 506 79 543 3 15 9 27 14 27 4 0 143 -20 309 -45z m2500 -41
c113 -32 184 -147 184 -299 0 -157 -91 -250 -285 -291 -155 -33 -309 -6 -385
68 -56 54 -77 119 -78 233 0 92 2 104 28 147 77 132 329 199 536 142z m-1704
-34 c178 -26 261 -79 279 -182 8 -43 4 -44 -86 -32 -37 5 -46 11 -55 34 -14
37 -56 58 -140 70 -93 13 -237 12 -268 -2 -38 -17 -44 -56 -12 -83 26 -24 70
-33 267 -60 205 -28 274 -58 300 -133 32 -92 -27 -187 -133 -213 -68 -17 -277
-14 -385 5 -147 26 -224 82 -238 171 -3 25 -5 47 -3 49 2 2 34 1 71 -2 63 -4
67 -6 70 -30 7 -61 119 -94 318 -96 135 -1 170 12 170 64 0 53 -22 60 -280 95
-237 32 -310 77 -310 190 0 85 41 130 140 151 68 15 203 17 295 4z m916 -20
c111 -31 176 -143 150 -259 -13 -60 -49 -107 -106 -138 -47 -25 -58 -27 -245
-34 -107 -4 -196 -8 -197 -8 -2 -1 -3 -36 -3 -80 l0 -78 -62 -6 c-35 -3 -66
-3 -69 1 -4 4 -10 141 -14 304 l-7 298 169 3 c92 1 209 4 258 5 50 1 106 -3
126 -8z"/>
<path d="M2580 5600 c-58 -30 -114 -60 -124 -67 -18 -10 -7 -19 95 -86 62 -42
115 -75 115 -74 3 4 25 280 22 281 -2 1 -50 -23 -108 -54z"/>
<path d="M12234 5568 c3 -13 8 -76 12 -140 3 -65 8 -118 10 -118 6 0 198 122
212 135 11 10 -9 25 -107 79 -66 36 -123 66 -126 66 -3 0 -3 -10 -1 -22z"/>
<path d="M3193 5318 c-25 -31 -84 -161 -76 -168 4 -5 74 -43 154 -84 159 -83
202 -93 239 -56 23 23 40 61 40 90 0 36 -51 78 -182 148 -160 86 -162 86 -175
70z"/>
<path d="M11615 5220 c-16 -5 -89 -40 -161 -77 l-132 -67 80 -161 c44 -88 82
-162 84 -164 7 -7 198 88 265 131 66 42 89 78 89 140 0 50 -51 151 -92 181
-29 22 -91 30 -133 17z"/>
<path d="M4601 4688 c-17 -46 -34 -108 -30 -111 11 -9 361 -117 377 -117 39 0
73 70 53 108 -8 15 -57 35 -186 76 -96 31 -181 59 -190 62 -9 4 -18 -2 -24
-18z"/>
<path d="M4511 4409 c-11 -35 -18 -66 -14 -70 12 -11 385 -129 409 -129 48 0
81 83 47 117 -10 10 -98 44 -193 75 -252 82 -224 81 -249 7z"/>
<path d="M10045 4583 c-82 -24 -153 -48 -158 -52 -12 -12 46 -191 63 -191 23
0 291 85 326 103 17 9 37 30 44 47 11 26 10 37 -5 75 -30 80 -59 82 -270 18z"/>
<path d="M9322 4405 c-86 -19 -147 -50 -174 -88 -34 -47 -32 -155 2 -216 36
-64 78 -86 165 -85 118 1 221 42 269 107 48 66 11 227 -62 270 -42 25 -123 30
-200 12z"/>
<path d="M8480 4266 c-118 -25 -166 -79 -164 -183 4 -153 91 -216 269 -192
101 14 168 49 194 103 51 104 0 249 -97 276 -48 13 -132 11 -202 -4z"/>
<path d="M7550 4105 l0 -105 113 1 c61 0 147 4 191 8 69 6 81 10 102 34 40 47
28 133 -23 156 -15 7 -93 11 -203 11 l-180 0 0 -105z"/>
<path d="M6845 11424 c-27 -2 -131 -8 -230 -14 -1069 -66 -2141 -340 -2975
-761 -647 -327 -1093 -672 -1465 -1134 -253 -315 -438 -726 -490 -1090 -22
-152 -20 -452 5 -600 134 -821 771 -1563 1825 -2128 733 -393 1710 -682 2660
-786 559 -62 1034 -91 1501 -91 645 0 1164 49 1754 165 928 183 1730 494 2399
932 707 463 1184 1049 1351 1663 91 336 91 720 0 1060 -10 36 -13 40 -23 26
-8 -10 -30 -18 -62 -20 -28 -1 -58 -6 -67 -10 -13 -6 -15 -3 -11 16 3 13 2 20
-2 15 -5 -4 -9 -15 -10 -25 -1 -9 -5 -24 -8 -32 -4 -8 -16 -41 -27 -72 -12
-32 -26 -60 -31 -63 -7 -5 -115 47 -174 84 -9 5 49 19 102 24 11 1 19 6 16 10
-3 5 8 23 25 40 36 38 45 78 29 131 -12 44 -57 78 -97 74 -16 -1 -36 8 -54 25
-16 15 -31 25 -34 22 -2 -2 -12 -1 -21 4 -9 5 -28 11 -43 15 -25 6 -28 3 -28
-17 0 -17 10 -29 35 -43 19 -10 35 -21 35 -25 0 -26 -41 -12 -115 40 -27 20
-52 36 -55 36 -3 0 -4 2 -4 5 1 3 4 25 8 50 l5 45 -14 -44 c-20 -60 -28 -65
-21 -11 l6 45 -20 -55 -19 -55 4 45 c4 44 4 43 -13 -15 -15 -53 -17 -57 -21
-30 -3 25 -7 19 -22 -40 -18 -67 -18 -62 -4 50 4 30 0 25 -15 -25 l-19 -65 4
55 c5 58 0 53 -21 -20 l-13 -45 4 50 c5 54 -1 47 -21 -25 l-14 -45 5 55 c4 38
2 49 -4 35 -5 -11 -10 -30 -10 -42 -1 -12 -5 -24 -9 -27 -4 -2 -7 12 -5 32 l3
37 -15 -35 -15 -35 5 40 c3 22 8 51 11 65 4 14 4 22 0 18 -4 -3 -14 -28 -21
-55 -13 -47 -13 -48 -15 -13 l-2 35 -14 -35 -14 -35 5 45 5 45 -15 -32 -14
-31 -58 29 c-32 15 -61 29 -64 29 -13 0 -20 -52 -8 -66 6 -8 8 -14 3 -14 -5 0
-3 -4 4 -9 10 -6 3 -10 -22 -15 -28 -5 -48 -1 -89 20 -28 14 -77 33 -107 40
-72 19 -270 115 -294 143 -35 39 -19 111 25 111 33 0 107 -42 113 -65 4 -15
33 -34 103 -68 174 -82 186 -86 205 -76 24 13 23 27 -4 39 -34 15 -61 33 -80
54 -13 14 -18 15 -18 5 -1 -11 -3 -11 -13 2 -16 21 -45 35 -89 43 -42 8 -88
54 -66 67 9 6 9 9 -3 14 -19 7 -21 35 -2 35 17 0 17 16 -1 23 -15 6 -10 57 6
57 5 0 6 5 3 11 -9 14 48 5 98 -16 49 -20 64 -11 32 20 -18 16 -22 25 -13 28
25 9 -61 59 -222 129 -25 11 -53 24 -62 29 -10 5 -22 9 -27 9 -5 0 -25 7 -46
15 -32 14 -35 18 -23 32 11 14 11 16 0 9 -12 -7 -99 24 -249 90 -17 8 -36 14
-41 14 -6 0 -18 9 -26 21 -8 12 -19 18 -25 14 -6 -3 -11 -1 -11 6 0 26 -61 65
-239 152 -212 105 -263 127 -290 127 -11 0 -23 5 -26 10 -3 6 -12 10 -18 10
-7 -1 -2 -9 10 -19 20 -17 21 -20 6 -26 -15 -5 -15 -7 -3 -15 15 -10 8 -13
-20 -11 -11 1 -16 -11 -17 -51 -5 -100 -3 -113 19 -130 8 -7 18 -21 21 -31 6
-15 3 -16 -13 -7 -10 5 -22 15 -25 20 -4 6 -10 8 -14 5 -5 -2 -13 14 -20 35
-21 71 -71 110 -268 209 -101 50 -186 91 -189 91 -25 0 40 -41 150 -96 164
-82 207 -108 184 -112 -15 -3 -136 57 -255 126 -69 40 -130 59 -145 44 -19
-19 0 -31 215 -140 199 -101 280 -155 292 -193 4 -13 12 -18 22 -15 8 3 27 -2
41 -12 59 -41 705 -362 728 -362 51 0 144 -72 144 -111 0 -25 -37 -235 -49
-276 -5 -18 -6 -34 -3 -38 7 -7 -89 30 -117 45 -9 4 -28 6 -42 3 -31 -6 -73
13 -63 28 17 28 14 73 -9 123 -23 49 -30 56 -93 86 -38 17 -194 93 -346 168
-266 130 -277 136 -272 161 4 24 -3 29 -123 86 -70 33 -195 94 -278 135 l-150
75 3 45 c2 29 18 71 43 116 21 39 39 81 39 92 0 31 59 173 88 212 15 19 40 46
56 60 16 13 42 38 57 55 33 34 21 37 135 -40 108 -72 134 -96 134 -119 0 -20
113 -79 961 -500 1026 -509 970 -485 1046 -449 31 14 39 13 218 -43 200 -62
235 -82 235 -136 0 -41 -21 -118 -31 -118 -5 0 -113 52 -239 115 -126 63 -234
115 -240 115 -5 0 -10 -7 -10 -15 0 -9 86 -58 238 -134 235 -117 280 -132 319
-108 14 9 38 -40 49 -98 l6 -34 64 2 c77 2 77 -9 3 165 -320 759 -1150 1458
-2259 1904 -710 285 -1461 461 -2295 537 -594 55 -741 63 -1190 66 -242 1
-462 1 -490 -1z m-512 -260 l45 -6 -5 -199 -6 -199 50 0 50 0 7 53 c3 28 6
118 6 200 l0 147 111 0 111 0 -6 -522 c-4 -288 -9 -540 -12 -560 l-6 -38 -93
0 c-51 0 -101 3 -110 6 -15 6 -16 30 -9 255 l7 249 -50 0 -50 0 -7 -37 c-3
-21 -6 -134 -6 -250 l0 -213 -116 0 -116 0 6 68 c3 37 8 285 12 552 3 267 8
488 11 493 5 9 113 9 176 1z m888 -46 c85 -50 128 -178 116 -347 -16 -220 -76
-293 -243 -292 l-84 0 0 -88 c0 -48 -3 -148 -6 -222 l-7 -134 -109 3 -110 3 6
212 c3 117 9 365 12 552 3 187 8 342 9 345 2 3 86 3 187 0 176 -5 185 -6 229
-32z m538 16 c100 -29 149 -104 167 -256 l6 -58 -115 0 -116 0 -3 51 c-4 63
-28 86 -68 66 -27 -14 -35 -36 -25 -74 3 -14 62 -83 130 -154 172 -179 202
-250 184 -430 -18 -180 -96 -262 -249 -263 -103 -1 -164 19 -216 68 -56 55
-74 116 -74 258 l0 108 33 0 c19 0 68 -3 110 -6 l77 -7 0 -93 c0 -101 10 -124
55 -124 32 0 45 27 45 92 -1 78 -25 119 -154 256 -133 143 -156 187 -156 301
0 147 56 237 170 272 43 13 144 10 199 -7z m615 -8 c134 -41 184 -140 171
-343 l-7 -103 -109 0 -109 0 0 113 c0 75 -4 117 -12 125 -18 18 -66 15 -76 -5
-5 -10 -13 -161 -17 -336 -6 -284 -5 -320 9 -342 35 -53 86 -21 86 54 0 26 3
82 6 124 l7 77 110 0 109 0 -4 -147 c-3 -127 -7 -155 -26 -198 -30 -65 -53
-89 -115 -116 -61 -26 -179 -31 -241 -10 -49 17 -111 73 -139 125 -21 40 -22
50 -21 391 0 301 3 358 18 410 20 69 55 127 91 151 67 44 180 57 269 30z
m-4014 -871 c6 -7 35 -27 63 -43 82 -47 123 -98 187 -230 17 -35 48 -82 70
-106 38 -41 74 -121 63 -139 -3 -5 -114 -90 -247 -190 -217 -163 -241 -183
-238 -207 3 -24 -21 -44 -239 -206 -133 -98 -267 -197 -298 -219 -70 -51 -93
-92 -88 -160 2 -27 7 -59 11 -71 6 -16 2 -23 -19 -32 -15 -7 -35 -10 -44 -7
-10 3 -25 -3 -36 -15 -10 -11 -24 -20 -30 -20 -7 0 -18 -7 -25 -15 -32 -39
-50 -12 -125 191 -37 100 -37 102 -19 124 51 59 87 90 106 90 11 0 71 39 133
88 62 48 184 141 271 207 88 66 186 143 219 171 33 28 65 49 72 47 6 -2 16 12
23 31 14 44 66 92 273 250 157 120 182 146 157 161 -12 8 -83 -32 -131 -73
-132 -114 -224 -180 -235 -169 -6 6 152 134 239 194 42 29 90 88 55 66 -30
-17 -273 -200 -311 -233 -41 -36 -87 -118 -87 -156 0 -19 -18 -41 -47 -57 -15
-9 -5 29 11 42 13 11 9 91 -5 91 -5 0 -7 11 -3 25 4 16 2 25 -6 25 -7 0 -10 8
-7 20 4 17 1 19 -21 14 -21 -4 -24 -3 -12 5 13 9 12 12 -7 17 l-22 6 22 19
c58 48 -53 -7 -156 -78 -84 -58 -290 -216 -318 -244 -10 -10 -15 -20 -12 -23
3 -3 -2 -8 -11 -12 -9 -3 -13 -10 -10 -15 3 -5 -3 -9 -12 -9 -10 0 -15 -3 -11
-6 8 -9 -79 -84 -98 -84 -3 0 -39 -22 -80 -50 -76 -51 -92 -59 -79 -38 4 7 3
8 -5 4 -6 -4 -9 -12 -6 -17 4 -5 1 -9 -4 -9 -6 0 -11 -6 -11 -13 0 -8 -11 -20
-25 -27 -14 -7 -25 -17 -25 -22 0 -4 -9 -8 -20 -8 -11 0 -20 -4 -20 -8 0 -5
-16 -17 -35 -28 -19 -10 -35 -22 -35 -25 0 -4 -19 -17 -41 -28 -44 -24 -149
-110 -149 -123 0 -4 7 -8 15 -8 17 0 14 -4 -25 -47 -13 -15 -12 -16 14 -9 15
4 40 16 55 27 15 11 40 21 56 22 24 2 29 -3 37 -32 7 -24 6 -36 -3 -42 -9 -5
-8 -12 6 -25 11 -12 14 -19 6 -22 -6 -2 -11 -8 -11 -13 0 -6 5 -7 12 -3 8 5 9
2 5 -10 -4 -10 -7 -22 -7 -27 0 -13 -105 -79 -125 -79 -9 0 -14 -4 -11 -8 4
-7 -66 -75 -108 -105 -7 -5 -5 -12 8 -22 11 -8 22 -15 25 -15 3 0 42 27 86 60
44 33 99 72 123 88 29 18 45 36 49 55 6 29 75 87 104 87 41 0 64 -64 39 -110
-13 -25 -204 -163 -265 -191 -27 -13 -51 -27 -53 -31 -2 -4 -10 -8 -18 -8 -8
0 -14 -4 -14 -8 0 -5 -17 -18 -37 -29 -45 -25 -89 -16 -78 16 3 10 0 30 -6 44
l-11 25 -52 -39 c-28 -21 -54 -39 -58 -39 -4 0 -14 12 -22 28 -17 31 -21 16
-6 -24 14 -37 5 -42 -15 -7 l-16 28 6 -27 c8 -41 -3 -34 -22 14 -9 23 -18 37
-20 31 -3 -7 3 -25 11 -42 9 -16 16 -38 15 -48 0 -10 -11 5 -24 32 -27 58 -31
56 -10 -5 23 -64 17 -62 -16 5 -33 69 -39 60 -9 -16 27 -68 19 -75 -9 -8 -24
56 -40 63 -17 8 31 -77 24 -79 -13 -4 -43 88 -52 94 -21 14 30 -76 18 -70 -15
6 -36 85 -43 78 -10 -10 33 -88 26 -94 -10 -10 -36 85 -43 78 -10 -10 14 -38
24 -70 22 -72 -2 -2 -12 18 -22 44 -23 59 -84 191 -85 181 0 -4 9 -31 20 -59
29 -72 18 -72 -14 1 -15 33 -29 60 -31 60 -2 0 5 -25 15 -55 11 -31 15 -53 10
-50 -6 4 -10 1 -10 -4 0 -6 -3 -11 -8 -11 -4 0 -34 -25 -67 -55 -54 -50 -85
-68 -85 -47 0 5 13 21 29 36 19 18 27 34 24 47 -3 10 -8 19 -12 19 -20 -1
-107 -59 -115 -77 -6 -11 -19 -20 -31 -20 -58 0 -102 -64 -92 -136 6 -41 13
-51 86 -109 7 -6 37 -11 66 -12 30 0 51 -4 49 -8 -3 -5 -37 -34 -76 -65 l-71
-56 -23 28 c-12 16 -30 46 -40 66 -21 47 -60 63 -134 53 -59 -8 -70 0 -70 53
0 42 30 63 91 63 l46 0 6 66 c6 66 19 95 41 93 7 0 6 -2 -2 -6 -6 -2 -10 -9
-6 -14 3 -5 13 -5 24 1 10 5 25 8 32 5 7 -3 68 36 135 88 67 51 164 124 216
162 91 67 109 87 88 99 -8 5 -175 -116 -384 -277 -27 -20 -52 -37 -57 -37 -10
0 -50 94 -50 119 0 28 18 65 38 78 10 5 90 49 180 96 l162 87 58 -14 58 -13
845 634 c464 348 851 640 859 648 8 8 14 26 15 39 0 30 178 216 205 216 10 0
23 -7 30 -15z m1145 -446 c18 -33 29 -32 30 4 l0 22 385 -2 c1082 -7 2016 -19
2027 -26 6 -4 156 -7 332 -7 248 0 321 -3 322 -13 0 -9 2 -9 6 1 4 9 115 12
511 12 456 0 507 -2 524 -17 10 -9 18 -23 18 -31 0 -12 -120 -13 -917 -8 -505
4 -1100 9 -1323 11 -223 3 -607 7 -855 10 -869 9 -1280 16 -1287 24 -4 4 -1
17 8 29 14 20 23 22 109 22 l94 0 16 -31z m988 -59 c150 1 167 0 167 -15 0
-16 -25 -17 -322 -12 -178 3 -444 6 -591 6 -313 0 -547 10 -547 23 0 5 228 7
563 3 309 -3 637 -5 730 -5z m477 -20 c0 -12 -262 -11 -282 1 -7 5 49 9 135 9
91 0 147 -4 147 -10z m340 -1 c0 -8 4 -8 14 0 16 14 267 14 303 0 12 -4 24 -5
27 -1 2 4 48 6 103 5 54 -1 122 -2 151 -2 28 -1 52 -6 52 -11 0 -16 -962 -9
-968 8 -3 9 33 12 157 12 112 0 161 -3 161 -11z m1306 -10 c3 -5 10 -6 16 -3
6 4 139 6 297 6 291 -2 520 -1 556 1 69 3 105 -4 105 -20 0 -15 -22 -15 -252
-9 -139 3 -469 7 -733 8 -524 2 -618 5 -609 19 7 12 612 10 620 -2z m1053 -5
c44 -9 28 -24 -25 -24 -32 0 -44 4 -44 15 0 16 19 19 69 9z m-3709 -44 c102
-1 192 -6 202 -11 10 -6 19 -5 23 1 10 16 118 12 142 -5 14 -10 24 -12 28 -5
9 14 118 12 134 -2 11 -10 14 -10 18 0 6 15 149 17 158 2 4 -6 13 -7 23 -1 16
8 1196 6 1702 -4 113 -2 342 -4 510 -4 168 -1 320 -5 337 -10 22 -6 35 -6 39
1 5 7 42 8 118 3 61 -4 118 -7 126 -7 25 -1 41 -20 34 -41 -6 -18 -3 -19 24
-14 17 4 34 2 37 -3 3 -5 22 -6 42 -3 l36 6 -5 -52 c-4 -36 -1 -54 8 -59 6 -4
13 -25 15 -47 2 -28 13 -53 37 -82 20 -26 28 -43 20 -44 -59 -3 -1882 2 -2053
6 -121 3 -672 7 -1225 10 -1229 7 -1731 13 -1738 20 -3 3 90 5 206 5 117 0
212 4 212 8 0 5 11 22 25 38 19 22 25 40 25 76 0 42 3 48 30 62 28 14 31 13
42 -4 11 -17 13 -17 25 7 7 14 13 27 13 29 0 2 -23 2 -51 -1 l-51 -5 7 33 c4
17 7 45 6 61 -1 16 3 32 9 36 10 6 133 6 710 0z m3713 -58 c21 -23 13 -32 -30
-32 -25 0 -33 4 -33 18 0 37 36 44 63 14z m1541 -239 c7 3 19 0 26 -6 10 -9
12 -8 7 5 -5 14 -2 15 26 6 18 -6 44 -11 59 -11 15 0 25 -3 22 -8 -2 -4 4 -12
13 -18 15 -8 16 -12 4 -23 -10 -9 -12 -10 -7 0 4 7 2 12 -6 12 -7 0 -24 3 -38
5 -24 5 -24 5 -2 -4 34 -16 26 -27 -15 -25 -43 2 -78 19 -111 52 -25 25 -30
41 -7 22 8 -7 21 -10 29 -7z m248 -70 c23 -21 24 -45 1 -36 -11 4 -13 8 -5 11
9 3 5 10 -9 23 -12 10 -18 19 -14 19 5 0 17 -7 27 -17z m-1475 -19 c-3 -3 -12
-4 -19 -1 -8 3 -5 6 6 6 11 1 17 -2 13 -5z m151 -1 c-10 -2 -26 -2 -35 0 -10
3 -2 5 17 5 19 0 27 -2 18 -5z m1402 -11 c0 -5 -11 -14 -25 -20 -16 -7 -25 -8
-25 -1 0 5 10 14 23 19 29 11 27 11 27 2z m-3889 -35 c-13 -13 -26 -3 -16 12
3 6 11 8 17 5 6 -4 6 -10 -1 -17z m689 3 c0 -5 -4 -10 -10 -10 -5 0 -10 5 -10
10 0 6 5 10 10 10 6 0 10 -4 10 -10z m145 0 c3 -5 1 -10 -4 -10 -6 0 -11 5
-11 10 0 6 2 10 4 10 3 0 8 -4 11 -10z m2969 -6 c5 -14 4 -15 -9 -4 -17 14
-19 20 -6 20 5 0 12 -7 15 -16z m-1914 -4 c0 -5 -4 -10 -10 -10 -5 0 -10 5
-10 10 0 6 5 10 10 10 6 0 10 -4 10 -10z m1948 -15 c-3 -3 -9 2 -12 12 -6 14
-5 15 5 6 7 -7 10 -15 7 -18z m-6300 -13 c3 -17 -12 -18 -195 -17 -193 0 -198
1 -201 21 -3 21 -1 21 195 17 179 -3 198 -5 201 -21z m252 -4 c0 -22 -9 -23
-24 -3 -9 12 -15 13 -36 2 -14 -7 -55 -14 -92 -16 -59 -2 -68 0 -78 18 -11 21
-10 21 110 19 108 -2 120 -4 120 -20z m98 0 c3 -15 -4 -18 -42 -18 -36 0 -44
3 -40 15 4 8 10 13 14 10 5 -3 12 0 15 5 10 17 49 7 53 -12z m202 2 c10 -19 8
-20 -55 -20 -58 0 -65 2 -65 20 0 18 7 20 55 20 44 0 56 -4 65 -20z m409 -6
c-16 -19 -60 -19 -53 0 6 16 32 25 52 18 9 -3 10 -8 1 -18z m74 5 c-6 -6 -18
-6 -28 -3 -18 7 -18 8 1 14 23 9 39 1 27 -11z m-639 -4 c3 -8 2 -15 -3 -15 -5
0 -14 7 -21 15 -10 12 -10 15 3 15 8 0 17 -7 21 -15z m881 5 c3 -5 17 -10 30
-10 13 0 27 -4 30 -10 4 -6 -19 -10 -61 -10 l-66 0 23 20 c27 22 35 24 44 10z
m115 -5 c0 -8 -4 -15 -10 -15 -5 0 -10 7 -10 15 0 8 5 15 10 15 6 0 10 -7 10
-15z m70 9 c0 -10 -28 -34 -39 -34 -16 0 -9 24 9 32 19 9 30 9 30 2z m64 -9
c20 -11 33 -12 40 -5 16 16 56 12 56 -5 0 -12 -15 -15 -75 -15 -56 0 -75 3
-75 13 0 30 14 33 54 12z m699 -4 c22 -22 -14 -31 -113 -27 -77 2 -96 6 -98
19 -3 12 7 17 45 20 76 7 153 1 166 -12z m117 4 c15 -18 5 -35 -21 -35 -24 0
-37 29 -18 41 19 12 25 11 39 -6z m203 -2 c4 -2 7 -11 7 -19 0 -11 -14 -14
-59 -14 -63 0 -81 11 -60 36 9 11 23 13 58 8 25 -4 49 -8 54 -11z m385 -4 c41
-16 23 -29 -40 -30 -35 0 -74 -2 -88 -4 -37 -4 -219 11 -227 19 -4 4 -1 11 7
16 23 15 60 12 66 -5 8 -19 28 -19 47 -1 7 8 25 16 38 18 36 5 171 -3 197 -13z
m-1258 -9 c10 0 22 5 25 10 4 6 16 8 28 3 32 -10 147 -10 147 0 0 5 7 3 16 -4
15 -12 14 -14 -12 -19 -16 -3 -75 -4 -131 -2 -89 3 -103 6 -102 20 0 11 3 12
6 5 2 -7 13 -13 23 -13z m323 5 c-6 -18 -35 -27 -56 -19 -24 9 0 31 35 32 19
0 25 -3 21 -13z m1160 -6 c3 -11 2 -21 -2 -24 -15 -9 -51 8 -51 24 0 14 -2 14
-10 1 -5 -8 -10 -10 -10 -4 0 17 10 23 40 22 19 -1 30 -7 33 -19z m165 -1 c4
-19 -35 -35 -50 -20 -6 6 -8 18 -4 27 8 21 50 16 54 -7z m480 10 c19 -19 14
-38 -12 -38 -31 0 -50 22 -34 38 15 15 31 15 46 0z m576 0 c24 -10 24 -12 8
-24 -9 -7 -36 -14 -59 -14 -36 0 -43 3 -43 20 0 11 5 20 10 20 6 0 10 -5 10
-11 0 -6 7 -3 16 5 18 19 25 20 58 4z m-1336 -15 c2 -8 -6 -13 -22 -13 -26 0
-40 12 -29 24 11 11 46 2 51 -11z m370 -1 c2 -7 -3 -12 -12 -12 -9 0 -16 7
-16 16 0 17 22 14 28 -4z m222 1 c0 -10 -20 -13 -75 -13 -69 0 -86 6 -68 24
13 13 143 3 143 -11z m44 8 c3 -5 15 -7 26 -4 11 3 20 0 20 -6 0 -6 -11 -11
-25 -11 -14 0 -28 0 -32 -1 -5 0 -9 7 -11 15 -4 17 13 22 22 7z m336 -6 c1
-13 -82 -23 -143 -17 -39 4 -45 7 -36 19 9 10 33 13 96 11 46 -2 83 -7 83 -13z
m158 -2 c-3 -14 -13 -18 -48 -18 -35 0 -45 4 -48 18 -3 14 4 17 48 17 44 0 51
-3 48 -17z m92 -17 c-14 -14 -32 3 -17 18 9 10 14 11 19 2 4 -6 3 -15 -2 -20z
m280 13 c0 -5 -7 -9 -15 -9 -15 0 -20 12 -9 23 8 8 24 -1 24 -14z m90 5 c0 -8
-4 -12 -10 -9 -5 3 -10 10 -10 16 0 5 5 9 10 9 6 0 10 -7 10 -16z m-1160 -4
c0 -5 -5 -10 -11 -10 -5 0 -7 5 -4 10 3 6 8 10 11 10 2 0 4 -4 4 -10z m-5108
-37 c-35 -49 -75 -78 -109 -78 -26 0 -30 3 -22 17 8 14 6 16 -8 11 -10 -4 -21
-11 -25 -17 -4 -6 -11 -7 -15 -2 -4 5 -2 11 5 13 6 3 12 10 12 16 0 11 22 21
94 44 14 4 17 3 12 -6 -8 -13 -8 -13 54 20 23 12 23 11 2 -18z m-238 -98 c-4
-8 -11 -15 -16 -15 -6 0 -5 6 2 15 7 8 14 15 16 15 2 0 1 -7 -2 -15z m2196
-15 c0 -5 -4 -10 -10 -10 -5 0 -10 5 -10 10 0 6 5 10 10 10 6 0 10 -4 10 -10z
m45 0 c3 -5 1 -10 -4 -10 -6 0 -11 5 -11 10 0 6 2 10 4 10 3 0 8 -4 11 -10z
m-2255 -25 c0 -8 -4 -15 -10 -15 -5 0 -10 7 -10 15 0 8 5 15 10 15 6 0 10 -7
10 -15z m-31 -23 c-3 -6 -13 -6 -29 0 -24 10 -24 11 -5 18 21 8 40 -2 34 -18z
m6368 22 c-3 -3 -12 -4 -19 -1 -8 3 -5 6 6 6 11 1 17 -2 13 -5z m1878 -77 c47
-30 68 -57 45 -57 -5 0 -10 4 -10 8 0 5 -6 9 -12 9 -23 0 -88 44 -88 59 0 20
9 18 65 -19z m-4285 13 c0 -5 -8 -10 -17 -10 -15 0 -16 2 -3 10 19 12 20 12
20 0z m-1856 -14 c21 2 44 0 50 -3 6 -4 23 -6 38 -4 40 4 51 -26 45 -123 -3
-45 -3 -71 0 -58 2 12 8 20 13 17 5 -3 12 7 15 22 4 15 10 36 16 45 5 10 9 31
9 47 0 55 26 59 375 56 171 -2 357 -4 413 -4 96 -1 104 -3 109 -21 6 -21 6
-21 21 1 13 19 21 21 71 16 31 -3 76 0 100 6 33 7 49 7 63 -2 13 -8 59 -11
138 -10 114 2 120 1 138 -21 19 -24 42 -21 42 6 0 17 12 18 27 3 17 -17 83
-29 83 -15 0 19 41 35 80 33 37 -3 42 -16 26 -64 -9 -28 10 -30 60 -7 33 16
36 15 56 -2 12 -11 19 -14 15 -9 -3 6 -2 17 3 25 7 11 10 7 16 -14 8 -32 39
-32 39 1 1 27 23 53 46 53 26 0 48 -26 42 -50 -3 -11 -1 -21 3 -21 58 -8 65
-7 74 12 8 14 21 19 53 18 23 -1 34 -3 25 -6 -39 -10 -14 -22 45 -22 l62 1
-30 24 c-16 14 -35 29 -41 34 -7 5 -15 6 -18 3 -3 -4 -6 -1 -6 5 0 7 6 12 14
12 7 0 27 3 43 6 31 6 69 -18 58 -37 -3 -4 6 -11 20 -15 16 -4 25 -13 25 -25
0 -22 29 -26 50 -6 12 10 12 9 1 -5 -10 -14 -10 -18 -1 -18 18 0 80 65 80 84
0 14 16 16 118 16 78 0 122 -4 130 -12 9 -9 12 -9 12 1 0 7 8 11 18 10 9 -1
24 1 33 5 8 4 28 2 43 -4 15 -5 54 -10 86 -10 46 0 59 -4 65 -17 6 -16 8 -16
24 5 16 21 23 23 104 19 48 -2 87 1 87 5 0 5 14 1 30 -9 17 -9 30 -21 30 -25
0 -4 5 -8 10 -8 6 0 10 9 10 20 0 21 14 27 24 11 3 -5 15 -7 25 -4 10 3 31 -3
46 -13 23 -15 28 -15 36 -3 7 11 9 11 9 -3 0 -10 5 -18 11 -18 6 0 9 9 6 19
-4 16 0 19 22 17 15 -2 27 -10 29 -20 4 -19 7 -19 34 -5 17 9 18 13 7 20 -9 6
1 9 31 9 25 1 94 3 153 6 133 6 167 -3 190 -52 9 -19 17 -41 17 -49 0 -8 5
-15 10 -15 6 0 10 9 10 20 0 11 7 20 15 20 10 0 15 10 15 29 0 36 22 55 52 45
13 -4 80 -6 150 -6 94 1 129 -2 137 -12 15 -18 36 -167 28 -190 -6 -14 -14
-17 -37 -12 -17 3 -30 1 -30 -4 0 -6 13 -10 30 -10 16 0 40 -5 54 -11 23 -11
25 -16 23 -76 l-2 -63 -99 -3 c-74 -2 -102 1 -113 11 -12 12 -16 12 -32 -2
-10 -9 -37 -17 -62 -18 -74 -2 81 -15 202 -17 l107 -1 6 -47 c4 -27 11 -79 17
-118 5 -38 12 -104 15 -145 3 -41 10 -79 15 -84 5 -6 9 -33 9 -61 0 -28 4 -55
9 -61 5 -5 12 -34 15 -64 3 -30 10 -84 15 -120 6 -36 15 -99 20 -140 6 -41 13
-94 17 -117 l7 -43 -159 1 c-88 1 -151 3 -141 6 9 2 17 9 17 14 0 9 -5 11 -32
13 -7 1 -18 10 -25 21 -12 19 -12 19 -13 1 0 -11 7 -27 15 -36 14 -16 -31 -17
-652 -16 -368 0 -658 2 -645 4 23 3 23 6 18 70 -3 37 -8 90 -11 117 -7 52 -72
193 -125 270 -42 61 -179 204 -212 221 -16 8 -28 21 -28 29 0 8 -9 15 -19 15
-11 0 -36 9 -58 19 -21 11 -59 27 -85 37 -30 10 -48 23 -48 33 0 11 -3 12 -8
4 -6 -9 -19 -9 -57 1 -28 8 -76 19 -107 26 -32 6 -57 14 -56 18 1 4 -1 22 -5
40 -4 22 -11 31 -18 26 -7 -4 -46 -8 -88 -10 -42 -1 -81 -3 -88 -3 -7 -1 -10
-8 -6 -17 3 -9 0 -20 -8 -25 -10 -6 -10 -9 -1 -9 6 0 12 -4 12 -9 0 -5 -21
-11 -47 -14 -106 -11 -199 -33 -215 -49 -10 -10 -36 -21 -58 -24 -22 -4 -43
-11 -46 -15 -3 -5 -14 -9 -25 -9 -10 0 -19 -4 -19 -10 0 -5 -6 -10 -13 -10 -7
0 -20 -8 -29 -17 -25 -26 -46 -43 -55 -43 -15 0 -120 -114 -138 -149 -10 -19
-39 -63 -66 -98 -27 -34 -49 -67 -49 -73 0 -5 -7 -10 -15 -10 -8 0 -12 -6 -9
-14 3 -8 -4 -41 -15 -73 -12 -32 -28 -94 -36 -138 -8 -43 -21 -85 -29 -93 -15
-16 -41 -16 -714 -14 -435 2 -444 2 -449 22 -5 20 -5 20 -38 0 -22 -14 -51
-21 -87 -21 -259 -1 -312 1 -320 13 -11 18 -10 108 1 108 5 0 12 35 15 78 8
121 16 185 26 207 11 24 20 86 26 185 3 41 10 79 15 84 5 6 9 33 9 61 0 28 5
56 10 61 6 6 12 88 14 190 2 98 5 185 5 192 1 6 11 13 24 13 16 1 18 2 5 6
-18 4 -25 23 -10 23 12 0 30 64 38 134 3 33 8 64 10 70 3 8 39 9 117 5 61 -3
129 -4 151 -3z m6246 -62 c0 -8 -7 -14 -15 -14 -15 0 -21 21 -9 33 10 9 24 -2
24 -19z m-386 -13 c16 -18 15 -19 -18 -39 -66 -39 -100 -133 -76 -206 12 -37
66 -112 129 -180 53 -56 134 -114 210 -149 54 -26 78 -31 138 -31 l71 0 -29
-30 c-16 -16 -29 -33 -29 -38 0 -14 36 -27 51 -17 19 12 39 11 39 -2 0 -6 11
-25 25 -43 42 -55 68 -157 62 -250 -2 -45 -7 -94 -11 -111 -4 -16 -20 -93 -37
-170 -16 -77 -43 -196 -60 -265 -16 -69 -29 -134 -29 -145 -1 -27 -37 -105
-61 -131 l-20 -22 38 -31 c21 -18 149 -88 286 -157 136 -68 247 -126 247 -129
0 -11 -541 257 -558 277 -7 9 -26 21 -42 28 -16 7 -27 17 -23 23 4 6 1 7 -6 2
-8 -4 -26 5 -46 25 -27 26 -32 37 -24 51 5 11 16 16 25 12 20 -8 52 23 80 79
21 41 86 310 96 395 1 7 13 10 32 7 l31 -4 -27 11 c-17 6 -28 18 -28 30 0 15
6 18 33 14 31 -5 31 -5 5 6 -33 13 -36 52 -3 43 18 -4 18 -4 4 8 -24 20 -21
50 5 43 20 -6 20 -5 4 8 -10 8 -18 18 -18 23 0 4 5 3 12 -4 7 -7 19 -12 27
-12 13 1 12 4 -3 15 -18 14 -18 15 -2 15 9 0 14 5 11 10 -3 6 0 10 7 10 7 0 2
9 -12 19 -20 16 -24 26 -21 65 3 53 -21 145 -53 198 -29 48 -98 101 -158 121
-59 20 -164 87 -248 161 -36 32 -103 83 -150 114 -47 30 -91 62 -97 71 -19 21
-16 52 5 57 9 3 35 36 57 74 28 49 46 70 60 70 15 0 17 2 6 9 -11 7 -10 14 4
39 11 17 24 28 32 25 7 -3 13 2 13 11 0 22 23 20 44 -3z m1233 -38 c-3 -10 -5
-4 -5 12 0 17 2 24 5 18 2 -7 2 -21 0 -30z m430 3 c27 -23 27 -25 10 -44 -21
-23 -59 -33 -81 -20 -16 9 -23 68 -9 81 14 14 53 6 80 -17z m-1412 -24 c-3 -3
-11 0 -18 7 -9 10 -8 11 6 5 10 -3 15 -9 12 -12z m922 -14 c-3 -8 -6 -5 -6 6
-1 11 2 17 5 13 3 -3 4 -12 1 -19z m80 0 c-3 -8 -6 -5 -6 6 -1 11 2 17 5 13 3
-3 4 -12 1 -19z m-757 -8 c0 -23 -25 -27 -33 -6 -7 16 1 26 20 26 7 0 13 -9
13 -20z m647 -2 c-3 -8 -6 -5 -6 6 -1 11 2 17 5 13 3 -3 4 -12 1 -19z m80 -10
c-3 -7 -5 -2 -5 12 0 14 2 19 5 13 2 -7 2 -19 0 -25z m50 0 c-3 -8 -6 -5 -6 6
-1 11 2 17 5 13 3 -3 4 -12 1 -19z m-9132 -79 c7 -11 -9 -29 -62 -66 -37 -26
-43 -28 -43 -11 0 12 78 87 92 88 4 0 10 -5 13 -11z m8237 -33 c33 -17 35 -21
26 -42 -6 -13 -19 -26 -28 -29 -9 -3 -37 -26 -60 -51 -74 -79 -159 -103 -238
-67 l-37 17 65 6 c101 9 156 49 202 147 11 24 23 42 27 41 3 -2 22 -12 43 -22z
m-7952 -6 c-13 -9 -13 -10 0 -10 8 0 38 -26 65 -57 64 -73 125 -135 125 -127
0 4 7 1 15 -6 28 -23 16 -51 -46 -108 -34 -32 -104 -107 -155 -169 -105 -124
-158 -174 -224 -208 -110 -57 -172 -213 -139 -354 8 -36 7 -47 -7 -62 -14 -15
-14 -19 -3 -19 11 0 11 -2 -1 -10 -13 -8 -12 -10 4 -10 16 0 17 -3 8 -12 -22
-22 -13 -29 16 -12 18 11 21 11 10 1 -24 -19 -23 -30 1 -18 15 8 20 7 26 -6 7
-20 -21 -46 -39 -36 -6 3 -5 0 2 -8 9 -10 15 -10 24 -1 7 7 15 12 19 12 8 0
44 -85 129 -300 59 -147 57 -143 117 -207 36 -38 45 -43 62 -34 16 9 22 8 31
-8 8 -16 5 -26 -17 -53 -15 -18 -28 -35 -29 -37 -2 -1 -7 0 -13 4 -7 4 -5 15
6 33 l17 27 -32 -29 c-35 -32 -40 -41 -18 -33 32 12 23 -9 -22 -53 -51 -51
-488 -380 -504 -380 -5 0 62 53 150 118 238 177 274 206 316 252 l38 42 -24
16 c-34 24 -54 51 -79 107 -12 28 -34 77 -49 110 -15 33 -64 150 -109 260 -46
110 -89 214 -96 230 -40 91 -38 243 5 338 18 41 24 46 45 41 16 -4 30 0 41 10
9 10 15 18 13 19 -2 2 -18 15 -36 29 l-31 25 49 6 c65 8 135 47 215 120 74 68
109 115 165 224 27 55 39 90 39 121 0 80 -43 145 -115 173 -41 17 -41 16 -20
39 10 11 30 20 44 20 20 0 23 -2 11 -10z m-415 -68 c0 -18 -20 -15 -23 4 -3
10 1 15 10 12 7 -3 13 -10 13 -16z m150 -32 c-3 -5 -16 -15 -28 -21 -21 -10
-21 -9 2 10 25 23 36 27 26 11z m-235 -80 c0 -11 -7 -20 -15 -20 -8 0 -15 9
-15 20 0 11 7 20 15 20 8 0 15 -9 15 -20z m-440 -30 c0 -5 -2 -10 -4 -10 -3 0
-8 5 -11 10 -3 6 -1 10 4 10 6 0 11 -4 11 -10z m10063 -1 c21 -12 37 -28 37
-39 0 -5 -29 -6 -66 -1 -7 0 -14 10 -17 20 -8 32 8 39 46 20z m-9336 -175 c38
-16 121 -18 158 -4 43 17 25 -11 -25 -37 -71 -38 -150 -28 -223 29 -20 16 -52
35 -71 43 -46 20 -49 34 -13 73 l31 32 55 -61 c30 -34 70 -68 88 -75z m9470
114 c-3 -8 -6 -5 -6 6 -1 11 2 17 5 13 3 -3 4 -12 1 -19z m-10529 -33 c-3 -3
-9 2 -12 12 -6 14 -5 15 5 6 7 -7 10 -15 7 -18z m86 -1 c3 -8 2 -12 -4 -9 -6
3 -10 10 -10 16 0 14 7 11 14 -7z m-416 -63 c-2 -29 -8 -37 -27 -39 -65 -10
-92 26 -48 65 47 44 80 32 75 -26z m10157 19 c-3 -5 -11 -10 -16 -10 -6 0 -7
5 -4 10 3 6 11 10 16 10 6 0 7 -4 4 -10z m-380 -30 c4 -6 -7 -10 -25 -10 -18
0 -29 4 -25 10 3 6 15 10 25 10 10 0 22 -4 25 -10z m-55 -24 c0 -3 -4 -8 -10
-11 -5 -3 -10 -1 -10 4 0 6 5 11 10 11 6 0 10 -2 10 -4z m40 -16 c0 -5 -4 -10
-9 -10 -6 0 -13 5 -16 10 -3 6 1 10 9 10 9 0 16 -4 16 -10z m1259 -27 c34 -17
48 -29 38 -31 -9 -2 -24 4 -33 12 -8 9 -21 16 -28 16 -15 0 -55 29 -41 30 5 0
34 -12 64 -27z m-109 5 c0 -4 -7 -8 -15 -8 -11 0 -12 -5 -5 -25 9 -24 8 -25
-36 -25 -40 0 -45 2 -39 18 4 9 8 24 10 32 2 8 4 16 4 17 2 7 81 -2 81 -9z
m160 -63 c0 -14 -29 -35 -50 -35 -15 0 22 49 38 50 6 0 12 -7 12 -15z m-10042
-70 c-3 -3 -9 2 -12 12 -6 14 -5 15 5 6 7 -7 10 -15 7 -18z m82 -126 c0 -5
-12 -9 -26 -9 -22 0 -24 2 -14 14 12 15 40 11 40 -5z m-971 -3 c10 -11 7 -19
-10 -35 -25 -23 -59 -28 -59 -9 0 12 39 56 51 57 4 1 12 -5 18 -13z m1001 -16
c0 -5 -2 -10 -4 -10 -3 0 -8 5 -11 10 -3 6 -1 10 4 10 6 0 11 -4 11 -10z
m-445 -20 c3 -5 2 -10 -4 -10 -5 0 -13 5 -16 10 -3 6 -2 10 4 10 5 0 13 -4 16
-10z m410 0 c-3 -5 -10 -10 -16 -10 -5 0 -9 5 -9 10 0 6 7 10 16 10 8 0 12 -4
9 -10z m-1128 -62 c-3 -8 -6 -5 -6 6 -1 11 2 17 5 13 3 -3 4 -12 1 -19z m-63
-163 c-4 -8 -9 -15 -13 -15 -4 0 -16 -7 -27 -16 -17 -14 -17 -15 -1 -10 11 4
16 2 12 -5 -4 -6 -13 -8 -20 -5 -8 3 -19 -1 -25 -9 -9 -11 -6 -20 14 -40 21
-21 22 -25 7 -25 -9 0 -26 7 -37 15 -16 13 -17 16 -4 25 12 8 12 10 1 10 -19
0 2 25 53 62 45 32 47 33 40 13z m133 -15 c10 -28 9 -31 -12 -36 -13 -3 -29
-3 -36 2 -8 4 -9 3 -5 -4 4 -7 2 -12 -5 -12 -7 0 -10 11 -7 29 4 24 1 27 -16
23 -14 -3 -18 -1 -11 6 10 10 37 19 65 21 9 0 21 -12 27 -29z m3393 -191 c168
0 325 -5 349 -10 24 -5 48 -6 55 -1 11 8 185 8 217 0 10 -2 24 -10 33 -17 14
-12 20 -11 37 7 18 20 30 22 140 22 97 0 121 -3 125 -15 4 -8 13 -15 21 -15 8
0 11 5 8 10 -8 13 -2 13 29 -1 20 -10 30 -9 51 5 l26 17 -3 -33 -3 -33 -885
-2 c-611 -1 -888 2 -897 9 -22 18 -16 48 10 49 40 2 90 9 94 13 3 2 68 2 146
0 78 -2 279 -4 447 -5z m3238 -20 c2 -5 10 -9 18 -9 8 0 14 -2 14 -4 0 -2 3
-11 6 -20 5 -14 -16 -16 -200 -16 l-206 0 0 35 0 36 183 -7 c100 -4 184 -11
185 -15z m960 3 c6 -18 69 -15 76 3 7 19 21 19 40 -1 13 -13 22 -14 48 -5 40
14 81 14 96 -1 8 -8 15 -8 25 0 8 7 16 9 20 6 3 -3 28 -7 56 -8 58 -3 64 -6
55 -30 -6 -15 -61 -16 -665 -16 -363 0 -659 3 -659 7 0 3 11 16 25 29 14 13
25 19 25 14 0 -14 77 -12 100 2 16 10 24 10 40 0 24 -14 76 -16 85 -2 6 10 32
9 50 -2 6 -4 24 -4 40 -1 67 11 137 15 132 6 -4 -5 0 -10 8 -10 8 0 12 4 9 9
-3 4 2 8 10 8 9 0 16 -6 16 -12 0 -10 2 -10 8 -1 10 16 44 19 211 18 102 -1
146 -5 149 -13z m-4448 -103 c0 -8 4 -8 13 -1 16 14 387 15 387 2 0 -6 12 -10
28 -9 24 0 25 1 7 9 -12 5 80 9 227 9 l248 1 7 -27 7 -28 6 25 6 25 172 3 172
2 2 -27 c0 -16 0 -37 -1 -47 -1 -11 4 -23 10 -27 22 -13 1 -39 -33 -40 -29 -2
-30 -2 -6 -6 l27 -4 -5 -112 c-3 -62 -7 -130 -9 -152 -3 -22 -7 -105 -10 -185
-7 -198 -14 -270 -28 -270 -7 0 -31 7 -54 15 -32 11 -49 12 -69 4 -15 -5 -33
-8 -40 -5 -8 3 -18 -3 -24 -12 -9 -16 -11 -16 -21 2 -9 15 -13 16 -20 5 -5 -8
-6 9 -2 41 3 30 11 58 16 62 7 4 7 11 -1 20 -10 13 -9 49 4 106 2 12 16 28 29
34 33 15 31 24 -5 43 -30 15 -40 47 -20 60 8 5 7 11 0 20 -6 8 -11 38 -10 67
1 29 1 58 0 63 -4 19 -19 -70 -19 -117 -1 -72 -6 -78 -65 -78 -57 0 -126 -16
-126 -30 0 -5 16 -14 35 -21 19 -7 38 -22 41 -32 6 -18 7 -18 18 4 18 37 44
36 61 -3 12 -30 12 -34 -3 -46 -9 -7 -29 -11 -45 -9 -17 2 -26 -1 -24 -7 2 -6
16 -10 31 -8 l26 3 -5 -73 c-4 -71 -4 -72 5 -20 13 72 29 100 29 52 0 -101
-19 -304 -30 -310 -8 -6 -8 -14 2 -31 8 -13 14 -34 16 -47 2 -21 -2 -23 -37
-21 -27 2 -45 -3 -59 -15 -19 -17 -21 -17 -21 -3 0 11 -8 17 -22 17 -20 0 -20
-1 -5 -18 14 -16 17 -43 17 -171 0 -118 3 -152 13 -149 7 3 14 29 17 64 3 32
9 65 13 72 5 7 3 12 -4 12 -7 0 -9 11 -5 33 4 17 7 43 6 56 0 17 4 22 16 17
11 -4 20 5 31 34 9 22 20 40 25 40 12 0 -1 -142 -24 -259 -8 -42 -7 -55 3 -62
20 -12 28 -2 27 40 -1 70 11 101 38 101 15 0 24 6 24 15 0 8 -3 14 -7 14 -36
-6 -41 16 -21 83 7 25 16 37 25 34 7 -3 13 -1 13 4 0 6 -7 10 -15 10 -8 0 -15
4 -15 9 0 5 7 16 15 25 24 24 18 43 -17 50 -25 5 -29 9 -19 15 10 7 15 30 15
80 1 43 6 75 14 83 10 10 14 8 19 -11 6 -22 7 -23 19 -6 11 15 16 16 29 5 8
-7 15 -23 15 -37 0 -13 7 -35 16 -48 14 -22 15 -44 9 -152 -7 -116 -9 -130
-34 -160 -14 -18 -34 -33 -43 -33 -10 0 -18 -7 -18 -15 0 -25 -2 -29 -22 -54
-21 -28 -9 -53 15 -32 18 14 27 -4 27 -55 0 -30 -3 -34 -26 -34 -26 0 -27 0
-20 -58 5 -41 2 -71 -9 -101 -9 -26 -15 -78 -15 -126 l0 -83 -545 0 c-491 1
-545 3 -545 17 0 43 14 91 26 91 7 0 20 8 30 17 11 11 19 14 21 7 3 -8 15 -9
39 -4 61 14 50 20 -35 20 -62 0 -82 3 -79 12 5 13 7 14 71 16 26 2 36 6 31 14
-5 8 -2 9 9 5 10 -4 20 0 25 10 6 10 14 13 23 7 19 -11 102 -11 110 0 4 5 21
4 40 -3 20 -7 36 -8 42 -2 13 13 -50 21 -193 25 -63 2 -122 4 -131 5 -13 1
-14 11 -2 90 7 49 17 122 22 162 6 41 19 144 30 229 11 85 30 227 41 315 12
88 26 192 32 230 6 39 12 97 14 130 7 136 40 322 61 346 7 8 13 21 13 27 0 9
91 12 343 14 219 2 342 7 342 13 0 6 -128 11 -358 13 l-357 2 -10 -24 c-5 -13
-25 -151 -44 -307 -20 -156 -43 -331 -51 -389 -16 -110 -115 -894 -123 -967
-2 -26 -9 -43 -17 -43 -7 0 -15 -18 -19 -40 -3 -22 -12 -40 -19 -41 -28 -2
-222 3 -225 6 -2 2 2 31 8 66 6 34 12 72 12 83 0 12 8 75 19 141 10 66 21 157
25 203 4 45 10 85 14 87 5 3 6 13 4 23 -3 9 9 103 26 207 18 105 32 201 32
215 0 14 14 113 30 220 16 107 36 240 44 295 8 55 19 112 25 127 6 15 8 31 5
37 -4 6 4 17 18 26 23 15 23 18 9 45 -17 35 -38 39 -46 10 -4 -16 -14 -20 -51
-20 -25 0 -46 -4 -46 -9 0 -5 6 -9 13 -8 6 0 25 -1 40 -1 l28 -2 -6 -67 c-6
-73 -20 -185 -61 -463 -34 -230 -81 -568 -99 -705 -19 -141 -64 -452 -71 -487
l-6 -28 -99 0 -99 0 7 48 c3 26 10 52 15 59 5 6 11 40 13 75 8 119 17 183 26
193 5 5 9 35 9 68 0 32 5 67 10 77 6 10 12 49 15 87 6 93 14 154 25 178 5 11
11 45 13 75 6 68 51 401 67 490 19 107 46 283 56 366 4 34 2 54 -5 58 -8 5 -5
15 9 33 11 14 20 34 20 44 0 11 6 28 12 39 12 19 24 20 190 20 125 0 178 -3
178 -11z m3275 -4 c52 -18 65 -18 65 0 0 14 21 16 160 13 88 -2 160 -5 160 -9
0 -3 35 -1 77 4 54 7 90 6 122 -2 50 -12 311 -11 311 2 0 4 34 7 75 7 76 0 97
-12 53 -30 -22 -8 -22 -9 5 -9 15 -1 36 4 47 9 11 6 28 14 39 19 15 8 21 5 29
-12 9 -19 11 -20 11 -3 1 12 6 16 16 12 8 -3 15 -1 15 4 0 6 64 10 161 10 180
0 188 -3 189 -67 0 -17 5 -35 10 -38 16 -10 11 -35 -7 -36 -15 -1 -15 -2 -2
-6 13 -3 17 -24 22 -106 4 -56 14 -141 22 -189 8 -47 20 -121 25 -165 5 -43
14 -105 20 -138 6 -33 15 -98 20 -145 5 -47 14 -118 20 -157 5 -40 14 -103 19
-140 4 -38 14 -84 21 -103 7 -19 17 -80 21 -135 4 -55 12 -122 18 -150 28
-123 46 -301 32 -309 -6 -4 -48 -8 -93 -9 l-83 -2 -7 60 c-4 33 -10 74 -13 90
-11 61 -45 313 -54 395 -6 47 -17 128 -25 180 -8 52 -22 145 -30 205 -8 61
-26 189 -40 285 -22 156 -44 324 -62 477 l-6 52 39 4 38 4 -41 1 c-32 2 -43 6
-47 22 -6 21 -39 25 -87 10 -24 -8 -23 -8 8 -9 17 -1 32 -5 32 -9 0 -4 -48 -8
-107 -7 -81 0 -107 3 -111 14 -3 9 0 11 8 6 9 -5 11 -4 6 3 -5 9 -106 12 -367
12 -297 0 -359 -2 -359 -14 0 -17 -51 -26 -147 -26 -62 0 -74 3 -83 20 -6 11
-16 20 -22 20 -15 0 -2 -57 17 -77 9 -8 13 -23 10 -33 -3 -10 -1 -21 5 -25 6
-4 10 11 10 40 l0 46 90 -2 c99 -2 93 3 106 -79 6 -39 8 -42 15 -22 5 12 15
22 24 22 8 0 15 5 15 10 0 6 -9 10 -20 10 -14 0 -20 7 -20 21 0 13 4 18 13 13
9 -6 9 -5 -1 8 -10 12 -9 18 3 28 20 17 101 4 109 -17 6 -14 9 -14 21 4 13 19
23 21 127 18 62 -1 148 -3 191 -4 66 -1 77 -4 78 -18 1 -17 2 -17 6 0 2 9 8
17 11 18 48 7 91 5 103 -5 22 -15 41 -54 34 -66 -3 -6 1 -20 9 -32 9 -12 16
-38 17 -58 0 -19 7 -53 14 -75 13 -38 14 -34 8 58 -4 78 -3 97 8 97 10 1 8 4
-3 11 -32 18 -21 37 25 41 23 3 49 8 57 12 10 4 24 -1 37 -14 12 -11 24 -16
27 -11 3 5 17 9 31 9 18 0 25 -6 25 -20 0 -17 -5 -19 -39 -13 -23 4 -42 2 -45
-4 -6 -9 16 -15 84 -24 11 -2 15 -15 15 -45 0 -23 3 -42 8 -42 11 0 8 -28 -4
-32 -8 -3 -7 -9 3 -19 17 -16 35 -71 36 -109 1 -14 6 -54 12 -90 6 -36 18
-121 26 -190 9 -69 21 -143 27 -165 7 -22 12 -74 12 -117 0 -42 3 -74 8 -71 4
2 8 -11 9 -29 1 -18 3 -49 4 -68 1 -19 9 -80 18 -135 65 -415 63 -390 41 -381
-10 3 -15 -1 -15 -13 0 -11 -4 -21 -10 -23 -12 -4 2 -99 15 -99 6 0 12 9 15
21 8 35 25 28 28 -12 3 -36 2 -37 -30 -37 -18 1 -53 -4 -78 -10 -57 -13 -133
-14 -125 -1 10 17 -6 80 -21 80 -8 0 -14 11 -15 28 0 15 -2 36 -4 47 -11 63
-18 106 -44 305 -40 310 -60 468 -77 625 -16 156 -32 237 -33 170 0 -16 4 -59
9 -95 5 -36 11 -90 15 -120 3 -30 7 -73 10 -95 3 -22 7 -62 10 -90 10 -91 16
-139 25 -190 5 -27 12 -87 15 -132 3 -45 10 -106 15 -135 6 -29 13 -72 15 -95
4 -39 2 -43 -18 -44 -17 -1 -18 -2 -4 -6 22 -6 22 -19 0 -32 -20 -11 -14 -21
13 -25 10 -2 20 -8 22 -14 3 -9 -84 -12 -342 -12 -237 0 -346 3 -346 11 0 5
-4 8 -8 5 -11 -7 -8 -43 5 -76 6 -14 12 -46 14 -70 l4 -45 -177 -3 -178 -2 0
27 c0 16 -3 51 -6 80 -7 51 -6 51 22 56 28 4 27 4 -6 7 l-35 3 35 7 35 7 -41
2 c-39 1 -42 3 -48 36 -8 42 -2 55 27 56 15 1 11 4 -13 11 -31 9 -33 11 -17
23 9 6 17 22 17 33 0 12 9 23 21 27 17 6 20 13 15 36 -4 20 -1 31 11 38 16 8
15 20 -5 158 -12 81 -22 152 -22 156 0 21 24 -2 34 -33 9 -28 16 -34 35 -32
19 2 22 -1 18 -19 -3 -12 0 -30 6 -40 9 -14 9 -24 1 -36 -7 -12 -7 -27 2 -52
7 -20 13 -51 14 -69 0 -20 4 -31 10 -27 13 8 13 71 0 96 -7 12 -7 19 -1 19 6
0 9 35 8 88 -2 66 2 90 12 98 11 9 18 8 29 -2 14 -15 32 -10 32 7 0 6 -4 7
-10 4 -6 -4 -10 5 -10 19 0 28 -14 35 -24 11 -3 -8 -16 -15 -30 -15 -13 0 -26
-5 -28 -12 -3 -7 -9 -8 -19 -3 -8 5 -31 11 -52 12 -21 2 -50 12 -64 23 l-26
20 24 1 c24 2 24 2 2 6 -26 5 -27 7 -13 34 13 23 30 25 30 4 0 -19 16 -20 23
-1 3 8 -1 20 -9 26 -21 18 -17 58 9 83 33 31 23 65 -18 62 -16 -1 -42 3 -58 8
-34 11 -91 2 -112 -19 -18 -18 -12 -32 21 -44 14 -6 26 -21 30 -37 4 -15 13
-35 20 -43 7 -9 16 -36 19 -60 10 -71 13 -76 30 -54 14 19 14 19 16 -1 2 -33
2 -34 29 -101 5 -12 12 -43 16 -70 6 -44 5 -48 -9 -36 -14 12 -24 46 -42 140
-12 59 -28 36 -22 -30 7 -75 -11 -128 -43 -128 -11 0 -23 -8 -26 -17 -3 -10
-11 -29 -18 -43 -11 -20 -11 -31 -1 -54 12 -27 12 -28 18 -6 8 33 30 19 41
-25 6 -28 6 -40 -3 -43 -6 -2 -9 -13 -5 -27 4 -18 1 -25 -16 -30 -17 -5 -20
-12 -16 -36 3 -16 9 -42 12 -59 5 -27 3 -30 -20 -30 -19 0 -26 -5 -26 -20 0
-11 -7 -20 -15 -20 -18 0 -18 0 0 -75 19 -77 19 -75 -9 -75 -32 0 -30 -11 -55
365 -14 195 -19 297 -31 535 -5 107 -16 301 -24 430 -23 368 -25 419 -17 424
4 3 24 0 44 -6 27 -8 43 -8 60 0 30 15 75 13 81 -5 7 -17 26 -8 26 13 0 11
-20 14 -105 14 -102 0 -105 1 -106 23 0 12 -2 38 -5 57 -2 19 -2 40 1 47 6 17
50 16 100 -2z m3885 -442 c-3 -54 -1 -60 11 -43 7 11 8 6 4 -20 -10 -51 -49
-97 -106 -126 l-50 -25 -45 23 c-52 26 -68 41 -26 26 63 -24 169 62 194 156 7
25 14 46 16 46 2 0 3 -17 2 -37z m-4013 -35 c-3 -7 -5 -2 -5 12 0 14 2 19 5
13 2 -7 2 -19 0 -25z m-5322 -178 c3 -5 1 -10 -4 -10 -6 0 -11 5 -11 10 0 6 2
10 4 10 3 0 8 -4 11 -10z m-198 -271 c44 -40 145 -71 165 -51 7 7 16 12 22 12
5 0 -10 -13 -32 -30 -23 -16 -54 -30 -70 -30 -44 0 -129 47 -152 84 -22 37
-26 61 -8 50 8 -5 9 4 5 32 l-6 39 19 -36 c10 -19 36 -51 57 -70z m3608 32 c5
-9 -7 -245 -21 -393 l-6 -66 -29 10 c-36 12 -59 58 -59 117 0 83 20 225 34
241 8 8 17 30 21 47 8 40 45 67 60 44z m1712 -278 c-2 -16 -4 -5 -4 22 0 28 2
40 4 28 2 -13 2 -35 0 -50z m6 -104 c-8 -29 -13 -23 -13 14 0 22 3 28 9 18 5
-7 6 -22 4 -32z m-1754 -176 c3 -30 2 -85 -4 -170 -6 -70 -9 -81 -23 -76 -41
14 -43 53 -11 211 10 50 33 72 38 35z m-119 -4 c0 -6 9 -9 20 -6 13 3 20 0 20
-9 0 -8 -9 -19 -20 -26 -11 -7 -20 -18 -20 -25 0 -7 -4 -13 -9 -13 -5 0 -9 20
-9 45 1 25 5 45 10 45 4 0 8 -5 8 -11z m1877 -46 c-3 -10 -5 -2 -5 17 0 19 2
27 5 18 2 -10 2 -26 0 -35z m-1840 -63 c-6 -32 -13 -47 -18 -39 -12 21 5 104
20 95 4 -3 4 -28 -2 -56z m-7 -85 c0 -14 -4 -25 -9 -25 -4 0 -6 11 -3 25 2 14
6 25 8 25 2 0 4 -11 4 -25z m1868 -115 c3 -90 1 -130 -7 -130 -7 0 -11 44 -11
137 0 75 3 133 7 130 3 -4 8 -65 11 -137z m-3028 70 c0 -5 -7 -10 -15 -10 -8
0 -15 5 -15 10 0 6 7 10 15 10 8 0 15 -4 15 -10z m4500 -47 c11 -10 20 -24 20
-32 0 -11 5 -10 21 5 11 10 16 20 10 22 -22 7 -10 23 16 20 29 -3 39 -26 45
-100 l2 -41 -46 -12 c-25 -6 -81 -10 -125 -8 -43 1 -107 2 -143 2 -102 -2
-109 -2 -230 4 -109 6 -115 7 -112 27 2 11 -2 20 -7 20 -11 0 -16 92 -5 102 3
3 124 6 270 7 235 1 266 -1 284 -16z m-1550 -3 c0 -5 -11 -10 -25 -10 -14 0
-25 5 -25 10 0 6 11 10 25 10 14 0 25 -4 25 -10z m0 -40 c0 -15 -7 -20 -25
-20 -24 0 -34 18 -18 33 15 15 43 7 43 -13z m-7 -47 c-7 -2 -19 -2 -25 0 -7 3
-2 5 12 5 14 0 19 -2 13 -5z"/>
<path d="M7020 10893 c0 -33 -3 -94 -6 -136 l-7 -77 32 0 c17 0 39 8 50 19 35
35 40 182 8 225 -7 9 -27 19 -44 22 l-33 7 0 -60z"/>
<path d="M4654 9777 c-28 -23 -71 -56 -95 -73 -24 -18 -93 -71 -154 -119 -60
-48 -129 -101 -152 -118 -23 -18 -42 -37 -43 -43 0 -6 -30 -35 -67 -65 -96
-77 -118 -97 -111 -105 4 -3 18 6 33 20 14 14 26 25 28 25 23 -4 132 83 152
121 7 14 50 52 95 85 371 271 391 288 374 305 -5 5 -30 -8 -60 -33z"/>
<path d="M3865 9140 c-10 -11 -15 -20 -11 -20 11 0 39 30 34 36 -3 2 -13 -5
-23 -16z"/>
<path d="M3644 8978 c-37 -33 -84 -117 -84 -151 0 -14 3 -15 19 -5 17 10 43
51 45 70 1 3 4 10 9 14 4 4 7 15 7 25 0 10 11 30 25 45 14 15 25 29 25 30 0 9
-12 2 -46 -28z"/>
<path d="M2963 8853 c9 -9 20 -13 24 -9 4 4 1 11 -7 16 -25 16 -35 11 -17 -7z"/>
<path d="M2816 8764 c-5 -14 -4 -15 9 -4 17 14 19 20 6 20 -5 0 -12 -7 -15
-16z"/>
<path d="M2840 8755 c-7 -9 -10 -18 -7 -21 3 -3 10 4 17 15 13 25 8 27 -10 6z"/>
<path d="M2264 8675 c-3 -8 -3 -19 0 -24 9 -15 36 -2 36 17 0 13 -3 12 -16 -4
-15 -19 -15 -18 -11 4 6 25 -1 30 -9 7z"/>
<path d="M2273 8480 c6 -22 15 -40 19 -40 11 0 10 2 -7 44 -20 47 -25 46 -12
-4z"/>
<path d="M2246 8490 c3 -14 10 -29 15 -34 14 -16 10 6 -7 34 l-15 25 7 -25z"/>
<path d="M2460 8501 c0 -6 4 -13 10 -16 6 -3 7 1 4 9 -7 18 -14 21 -14 7z"/>
<path d="M2220 8478 c0 -9 5 -20 10 -23 13 -8 13 5 0 25 -8 13 -10 13 -10 -2z"/>
<path d="M2790 8480 c0 -5 7 -10 16 -10 8 0 12 5 9 10 -3 6 -10 10 -16 10 -5
0 -9 -4 -9 -10z"/>
<path d="M2197 8463 c-7 -11 10 -40 18 -31 4 4 3 14 -3 24 -5 9 -12 12 -15 7z"/>
<path d="M1880 8125 c0 -5 5 -17 10 -25 5 -8 10 -10 10 -5 0 6 -5 17 -10 25
-5 8 -10 11 -10 5z"/>
<path d="M5273 9613 c9 -2 23 -2 30 0 6 3 -1 5 -18 5 -16 0 -22 -2 -12 -5z"/>
<path d="M5353 9610 c16 -5 47 -5 70 0 38 7 36 8 -28 8 -54 0 -63 -2 -42 -8z"/>
<path d="M6508 9603 c7 -3 16 -2 19 1 4 3 -2 6 -13 5 -11 0 -14 -3 -6 -6z"/>
<path d="M6600 9600 c0 -5 4 -10 9 -10 6 0 13 5 16 10 3 6 -1 10 -9 10 -9 0
-16 -4 -16 -10z"/>
<path d="M8626 9590 c-15 -5 -16 -9 -7 -14 7 -5 18 -3 24 3 14 14 6 20 -17 11z"/>
<path d="M9320 9570 c0 -6 7 -10 15 -10 8 0 15 2 15 4 0 2 -7 6 -15 10 -8 3
-15 1 -15 -4z"/>
<path d="M5610 9530 c0 -5 4 -10 9 -10 6 0 13 5 16 10 3 6 -1 10 -9 10 -9 0
-16 -4 -16 -10z"/>
<path d="M5847 9533 c-4 -3 -7 -13 -7 -20 0 -12 3 -12 15 1 8 8 15 17 15 20 0
8 -15 7 -23 -1z"/>
<path d="M7191 9484 c0 -11 3 -14 6 -6 3 7 2 16 -1 19 -3 4 -6 -2 -5 -13z"/>
<path d="M5255 9480 c-3 -5 -1 -10 4 -10 6 0 11 5 11 10 0 6 -2 10 -4 10 -3 0
-8 -4 -11 -10z"/>
<path d="M7179 9443 c-1 -10 -1 -25 0 -33 0 -10 -1 -11 -5 -2 -8 17 -24 15
-24 -4 0 -10 7 -14 23 -12 17 2 23 11 25 36 2 18 -1 32 -7 32 -6 0 -12 -8 -12
-17z"/>
<path d="M8951 9424 c0 -11 3 -14 6 -6 3 7 2 16 -1 19 -3 4 -6 -2 -5 -13z"/>
<path d="M5975 9410 c-3 -5 -1 -10 4 -10 6 0 11 5 11 10 0 6 -2 10 -4 10 -3 0
-8 -4 -11 -10z"/>
<path d="M9620 9397 c0 -18 5 -23 25 -22 28 0 29 2 20 28 -11 26 -45 22 -45
-6z"/>
<path d="M7288 9393 c6 -2 18 -2 25 0 6 3 1 5 -13 5 -14 0 -19 -2 -12 -5z"/>
<path d="M5798 9353 c7 -3 16 -2 19 1 4 3 -2 6 -13 5 -11 0 -14 -3 -6 -6z"/>
<path d="M7475 9340 c-3 -5 -1 -10 4 -10 6 0 11 5 11 10 0 6 -2 10 -4 10 -3 0
-8 -4 -11 -10z"/>
<path d="M7098 9333 c6 -2 18 -2 25 0 6 3 1 5 -13 5 -14 0 -19 -2 -12 -5z"/>
<path d="M9135 9330 c-3 -5 1 -10 10 -10 9 0 13 5 10 10 -3 6 -8 10 -10 10 -2
0 -7 -4 -10 -10z"/>
<path d="M9430 9320 c8 -5 20 -10 25 -10 6 0 3 5 -5 10 -8 5 -19 10 -25 10 -5
0 -3 -5 5 -10z"/>
<path d="M9632 9319 c2 -7 10 -15 17 -17 8 -3 12 1 9 9 -2 7 -10 15 -17 17 -8
3 -12 -1 -9 -9z"/>
<path d="M9518 9313 c6 -2 18 -2 25 0 6 3 1 5 -13 5 -14 0 -19 -2 -12 -5z"/>
<path d="M11270 9360 c0 -5 5 -10 11 -10 5 0 7 5 4 10 -3 6 -8 10 -11 10 -2 0
-4 -4 -4 -10z"/>
<path d="M3458 9113 c7 -3 16 -2 19 1 4 3 -2 6 -13 5 -11 0 -14 -3 -6 -6z"/>
<path d="M5431 8874 c0 -11 3 -14 6 -6 3 7 2 16 -1 19 -3 4 -6 -2 -5 -13z"/>
<path d="M7160 8875 c0 -5 5 -17 10 -25 5 -8 10 -10 10 -5 0 6 -5 17 -10 25
-5 8 -10 11 -10 5z"/>
<path d="M7135 8808 c3 -23 6 -51 7 -60 1 -9 6 -14 10 -12 13 8 5 107 -10 112
-9 3 -11 -8 -7 -40z"/>
<path d="M7832 8820 c0 -14 2 -19 5 -12 2 6 2 18 0 25 -3 6 -5 1 -5 -13z"/>
<path d="M7370 8787 c0 -24 25 -32 63 -19 l32 10 -35 1 c-20 1 -41 6 -48 13
-9 9 -12 8 -12 -5z"/>
<path d="M7580 8790 c0 -5 -19 -10 -42 -10 -48 0 -45 -8 6 -20 30 -7 38 -5 46
10 13 24 13 30 0 30 -5 0 -10 -4 -10 -10z"/>
<path d="M5266 8691 c-20 -22 -20 -31 -1 -31 8 0 15 -5 15 -11 0 -6 7 -4 15 5
8 8 15 21 15 29 0 23 -26 28 -44 8z"/>
<path d="M5339 8699 c-8 -41 -14 -39 134 -40 78 0 162 0 187 2 25 1 83 2 130
2 112 -1 161 -1 305 -2 66 0 140 -3 163 -7 38 -5 43 -4 40 11 -3 15 -30 17
-335 15 -261 0 -332 2 -336 12 -4 9 -8 10 -14 2 -4 -6 -26 -10 -48 -8 -22 1
-82 6 -132 10 -51 4 -93 5 -94 3z"/>
<path d="M7596 8684 c-3 -9 -6 -29 -6 -45 0 -20 -4 -27 -14 -23 -8 3 -12 13
-9 22 3 12 -3 17 -21 18 -22 2 -24 -1 -15 -17 8 -16 6 -21 -15 -29 -15 -5 -37
-5 -57 0 -17 5 -36 7 -40 4 -5 -3 -9 -1 -9 4 0 5 10 14 23 20 l22 11 -25 0
c-15 1 -30 -7 -38 -19 -7 -12 -17 -18 -22 -15 -16 10 -12 -29 7 -66 23 -47 49
-73 58 -60 3 6 12 8 18 4 16 -10 97 -12 97 -2 0 4 7 10 16 13 14 5 16 0 11
-34 -4 -34 -3 -39 9 -29 13 10 63 8 129 -6 11 -3 2 4 -20 15 -22 11 -53 20
-68 20 -28 0 -29 1 -21 43 4 23 6 57 6 74 -1 36 19 53 62 53 14 0 26 5 26 10
0 6 12 10 27 10 40 0 17 15 -25 16 -82 3 -93 4 -87 14 3 6 2 10 -3 10 -6 0
-13 -7 -16 -16z"/>
<path d="M5188 8683 c7 -3 16 -2 19 1 4 3 -2 6 -13 5 -11 0 -14 -3 -6 -6z"/>
<path d="M6604 8676 c-5 -13 -22 -16 -78 -15 -49 0 -65 3 -51 9 16 7 16 9 4 9
-9 1 -30 -6 -45 -14 -27 -14 -24 -15 74 -15 56 0 105 0 109 0 11 -1 12 29 2
36 -5 3 -12 -2 -15 -10z"/>
<path d="M6946 8675 c-4 -12 -30 -15 -147 -15 -78 0 -140 -2 -138 -4 7 -7 328
-10 335 -3 7 7 -20 37 -34 37 -6 0 -12 -7 -16 -15z"/>
<path d="M6338 8673 c7 -3 16 -2 19 1 4 3 -2 6 -13 5 -11 0 -14 -3 -6 -6z"/>
<path d="M8170 8670 c-137 -4 -186 -8 -187 -17 -2 -8 7 -13 23 -13 14 0 23 4
20 9 -4 5 44 10 109 10 73 1 115 -2 115 -9 0 -6 24 -10 55 -10 30 0 55 4 55 8
0 10 41 10 56 0 6 -4 132 -8 280 -9 348 -2 415 0 389 11 -18 8 -17 9 8 9 16 1
26 -3 22 -9 -4 -6 22 -10 69 -10 76 0 100 12 49 24 -17 5 -29 3 -35 -6 -6 -10
-10 -11 -16 0 -7 10 -99 13 -418 15 -225 1 -492 0 -594 -3z m427 -16 c-3 -3
-12 -4 -19 -1 -8 3 -5 6 6 6 11 1 17 -2 13 -5z"/>
<path d="M9293 8673 c-31 -6 -29 -33 2 -34 132 -4 276 2 270 11 -3 6 2 10 11
10 10 0 15 3 11 6 -7 7 -261 13 -294 7z"/>
<path d="M9628 8672 c-9 -2 -19 -9 -21 -17 -7 -16 25 -26 44 -14 8 4 24 6 36
2 16 -3 23 -1 23 9 0 17 -37 21 -47 6 -4 -8 -8 -7 -12 3 -3 8 -13 13 -23 11z"/>
<path d="M7158 8663 c23 -2 59 -2 80 0 20 2 1 4 -43 4 -44 0 -61 -2 -37 -4z"/>
<path d="M7296 8655 c25 -19 40 -19 48 0 4 12 -3 15 -31 15 -35 0 -36 -1 -17
-15z"/>
<path d="M5261 8591 c-11 -7 -11 -9 0 -14 26 -9 -5 -42 -42 -45 -147 -11 -76
-32 86 -25 140 6 179 13 72 13 -46 0 -70 5 -81 16 -18 18 -20 30 -6 39 6 4 8
11 5 16 -8 11 -16 11 -34 0z"/>
<path d="M5605 8580 c4 -6 11 -8 16 -5 14 9 11 15 -7 15 -8 0 -12 -5 -9 -10z"/>
<path d="M5935 8580 c3 -5 10 -10 16 -10 5 0 9 5 9 10 0 6 -7 10 -16 10 -8 0
-12 -4 -9 -10z"/>
<path d="M6255 8580 c-3 -5 3 -10 14 -10 12 0 21 5 21 10 0 6 -6 10 -14 10 -8
0 -18 -4 -21 -10z"/>
<path d="M6605 8580 c-3 -5 -1 -10 4 -10 6 0 11 5 11 10 0 6 -2 10 -4 10 -3 0
-8 -4 -11 -10z"/>
<path d="M6945 8570 c4 -6 11 -8 16 -5 14 9 11 15 -7 15 -8 0 -12 -5 -9 -10z"/>
<path d="M7320 8570 c0 -5 5 -10 10 -10 6 0 10 5 10 10 0 6 -4 10 -10 10 -5 0
-10 -4 -10 -10z"/>
<path d="M8345 8570 c-4 -6 3 -10 14 -10 25 0 27 6 6 13 -8 4 -17 2 -20 -3z"/>
<path d="M8555 8570 l-110 -5 115 -5 c63 -3 171 -3 240 0 l125 6 -117 2 c-64
1 -122 3 -130 5 -7 2 -62 0 -123 -3z"/>
<path d="M8985 8570 c-3 -5 1 -10 10 -10 9 0 13 5 10 10 -3 6 -8 10 -10 10 -2
0 -7 -4 -10 -10z"/>
<path d="M9320 8570 c0 -5 5 -10 10 -10 6 0 10 5 10 10 0 6 -4 10 -10 10 -5 0
-10 -4 -10 -10z"/>
<path d="M9620 8570 c0 -5 7 -10 16 -10 8 0 12 5 9 10 -3 6 -10 10 -16 10 -5
0 -9 -4 -9 -10z"/>
<path d="M9068 8563 c7 -3 16 -2 19 1 4 3 -2 6 -13 5 -11 0 -14 -3 -6 -6z"/>
<path d="M9178 8563 c12 -2 32 -2 45 0 12 2 2 4 -23 4 -25 0 -35 -2 -22 -4z"/>
<path d="M5601 8532 c-7 -12 -8 -22 -4 -23 52 -7 84 -6 88 2 4 5 -7 9 -24 9
-18 0 -34 7 -39 17 -9 14 -11 14 -21 -5z"/>
<path d="M5933 8526 c-15 -17 -7 -26 24 -26 21 0 22 2 11 20 -15 23 -19 24
-35 6z"/>
<path d="M6600 8526 c0 -8 -5 -16 -11 -18 -6 -2 11 -4 38 -4 26 -1 36 1 21 3
-16 3 -28 11 -28 19 0 8 -4 14 -10 14 -5 0 -10 -6 -10 -14z"/>
<path d="M5055 8520 c3 -5 22 -10 41 -10 19 0 34 5 34 10 0 6 -18 10 -41 10
-24 0 -38 -4 -34 -10z"/>
<path d="M7631 8514 c0 -11 3 -14 6 -6 3 7 2 16 -1 19 -3 4 -6 -2 -5 -13z"/>
<path d="M7988 8510 c-15 -17 -14 -18 15 -22 18 -1 57 0 87 3 l55 6 -59 1
c-36 1 -63 7 -70 16 -9 11 -14 10 -28 -4z"/>
<path d="M8667 8510 c-5 -18 -1 -20 51 -18 50 1 52 2 15 5 -29 3 -43 9 -43 19
0 21 -17 17 -23 -6z"/>
<path d="M9001 8518 c-1 -13 -13 -18 -48 -21 -27 -2 -7 -3 42 -4 50 0 73 2 53
4 -24 3 -38 10 -41 21 -4 16 -5 16 -6 0z"/>
<path d="M5452 8515 c9 -9 63 -12 83 -4 14 5 2 8 -34 8 -30 1 -52 -1 -49 -4z"/>
<path d="M6058 8503 c7 -3 16 -2 19 1 4 3 -2 6 -13 5 -11 0 -14 -3 -6 -6z"/>
<path d="M6523 8503 c9 -2 25 -2 35 0 9 3 1 5 -18 5 -19 0 -27 -2 -17 -5z"/>
<path d="M6758 8503 c17 -2 47 -2 65 0 17 2 3 4 -33 4 -36 0 -50 -2 -32 -4z"/>
<path d="M6872 8505 c10 -11 45 -13 59 -4 10 6 2 9 -25 9 -22 0 -37 -2 -34 -5z"/>
<path d="M7005 8500 c-8 -13 15 -13 35 0 12 8 11 10 -7 10 -12 0 -25 -4 -28
-10z"/>
<path d="M7245 8500 l-40 -7 37 -2 c20 0 40 4 43 9 3 6 5 9 3 9 -2 -1 -21 -5
-43 -9z"/>
<path d="M9325 8500 c-3 -5 1 -10 10 -10 9 0 13 5 10 10 -3 6 -8 10 -10 10 -2
0 -7 -4 -10 -10z"/>
<path d="M7093 8493 c9 -2 23 -2 30 0 6 3 -1 5 -18 5 -16 0 -22 -2 -12 -5z"/>
<path d="M8168 8493 c12 -2 30 -2 40 0 9 3 -1 5 -23 4 -22 0 -30 -2 -17 -4z"/>
<path d="M8368 8493 c28 -2 76 -2 105 0 28 2 5 3 -53 3 -58 0 -81 -1 -52 -3z"/>
<path d="M8540 8496 c0 -9 37 -12 55 -5 15 6 11 8 -17 8 -21 1 -38 -1 -38 -3z"/>
<path d="M8808 8493 c7 -3 16 -2 19 1 4 3 -2 6 -13 5 -11 0 -14 -3 -6 -6z"/>
<path d="M9188 8493 c6 -2 18 -2 25 0 6 3 1 5 -13 5 -14 0 -19 -2 -12 -5z"/>
<path d="M9413 8493 c9 -2 25 -2 35 0 9 3 1 5 -18 5 -19 0 -27 -2 -17 -5z"/>
<path d="M9488 8493 c7 -3 16 -2 19 1 4 3 -2 6 -13 5 -11 0 -14 -3 -6 -6z"/>
<path d="M7365 8471 c-3 -5 -1 -12 5 -16 5 -3 10 1 10 9 0 18 -6 21 -15 7z"/>
<path d="M5285 8450 c-3 -6 -11 -8 -16 -5 -5 4 -9 -1 -9 -9 0 -17 27 -21 48
-7 10 6 10 10 -2 20 -10 8 -16 9 -21 1z"/>
<path d="M5560 8442 c-104 -3 -94 9 -109 -142 -10 -101 -41 -354 -66 -535 -18
-134 -18 -135 -1 -135 22 0 28 15 37 104 4 44 15 144 24 221 32 285 36 321 42
378 l5 57 134 0 c76 0 134 -4 134 -9 0 -5 10 -12 23 -16 12 -3 32 -11 44 -17
17 -8 28 -7 45 3 30 19 249 19 272 0 12 -10 16 -6 21 34 4 25 6 48 4 50 -3 2
-78 5 -168 6 -145 2 -165 0 -173 -15 -9 -15 -11 -16 -21 -2 -13 17 -98 23
-247 18z"/>
<path d="M5117 8433 c-11 -11 -8 -20 8 -20 8 0 15 5 15 10 0 5 6 4 13 -2 15
-12 30 -4 21 10 -6 11 -48 12 -57 2z"/>
<path d="M5361 8440 c-1 -3 -4 -23 -6 -44 -3 -27 -1 -36 6 -29 6 6 9 26 6 44
-2 19 -5 32 -6 29z"/>
<path d="M7175 8430 c-7 -12 2 -12 30 0 19 8 19 9 -2 9 -12 1 -25 -3 -28 -9z"/>
<path d="M9776 8424 c-16 -11 -16 -13 4 -19 12 -4 25 -16 30 -28 8 -20 9 -18
9 10 1 17 7 33 14 36 6 2 0 6 -14 9 -15 2 -34 -1 -43 -8z"/>
<path d="M8789 8426 c-2 -3 -2 -33 1 -68 4 -49 9 -64 23 -66 13 -3 17 4 17 30
l0 34 138 0 c91 0 145 5 161 13 17 9 65 12 172 9 140 -3 150 -4 154 -23 2 -11
12 -94 20 -185 9 -91 18 -170 20 -176 2 -6 -1 -17 -5 -25 -5 -7 -5 -18 0 -24
5 -7 12 -36 15 -66 3 -30 9 -90 14 -134 5 -44 10 -87 10 -97 1 -17 61 -44 61
-27 0 5 -4 9 -9 9 -9 0 -31 75 -28 100 1 8 -2 35 -6 60 -7 50 -53 443 -64 560
l-8 75 -341 2 c-188 2 -343 1 -345 -1z"/>
<path d="M9560 8406 c0 -31 6 -34 13 -6 3 11 1 23 -4 26 -5 3 -9 -6 -9 -20z"/>
<path d="M9643 8416 c5 -14 99 -15 104 -1 2 6 -20 10 -52 11 -36 0 -54 -3 -52
-10z"/>
<path d="M7061 8400 c-17 -15 -19 -20 -8 -20 28 0 68 20 62 30 -9 15 -27 12
-54 -10z"/>
<path d="M9598 8408 c9 -9 15 -9 24 0 9 9 7 12 -12 12 -19 0 -21 -3 -12 -12z"/>
<path d="M7856 8396 c3 -8 13 -12 25 -9 16 5 18 8 7 14 -20 13 -38 11 -32 -5z"/>
<path d="M7005 8370 c-3 -6 1 -7 9 -4 18 7 21 14 7 14 -6 0 -13 -4 -16 -10z"/>
<path d="M6290 8360 c0 -5 11 -10 25 -10 14 0 25 5 25 10 0 6 -11 10 -25 10
-14 0 -25 -4 -25 -10z"/>
<path d="M6670 8359 c0 -5 5 -7 10 -4 6 3 10 8 10 11 0 2 -4 4 -10 4 -5 0 -10
-5 -10 -11z"/>
<path d="M9566 8337 c-3 -17 -2 -35 4 -41 5 -5 10 -23 10 -38 0 -15 5 -28 11
-28 5 0 7 5 4 10 -10 17 5 33 19 21 10 -9 13 -2 13 29 0 27 -5 40 -14 40 -7 0
-13 6 -13 14 0 8 -6 16 -14 19 -9 4 -16 -5 -20 -26z"/>
<path d="M6738 8342 c-16 -9 -28 -20 -28 -23 0 -14 36 3 48 22 15 23 14 23
-20 1z"/>
<path d="M5348 8325 c-5 -25 -4 -25 10 -11 12 11 13 19 5 27 -7 7 -12 3 -15
-16z"/>
<path d="M8000 8340 c0 -5 5 -10 11 -10 5 0 7 5 4 10 -3 6 -8 10 -11 10 -2 0
-4 -4 -4 -10z"/>
<path d="M8213 8329 c17 -27 97 -56 119 -43 18 11 -3 24 -23 14 -13 -7 -19 -7
-19 0 0 5 -7 10 -15 10 -8 0 -14 5 -12 12 1 6 -12 14 -30 18 -29 7 -30 6 -20
-11z"/>
<path d="M9811 8332 c0 -9 4 -25 7 -34 7 -17 8 -17 19 1 9 15 8 21 -8 34 -18
16 -19 16 -18 -1z"/>
<path d="M6862 8307 c-22 -28 -21 -34 3 -30 13 3 26 11 29 18 6 17 -20 27 -32
12z"/>
<path d="M8077 8303 c-13 -12 -7 -21 17 -25 21 -4 23 -3 13 14 -13 19 -20 22
-30 11z"/>
<path d="M8373 8293 c9 -2 25 -2 35 0 9 3 1 5 -18 5 -19 0 -27 -2 -17 -5z"/>
<path d="M9688 8293 c7 -3 16 -2 19 1 4 3 -2 6 -13 5 -11 0 -14 -3 -6 -6z"/>
<path d="M9656 8272 c-3 -3 -6 -9 -6 -14 0 -11 37 -10 44 1 6 10 -30 22 -38
13z"/>
<path d="M8325 8244 c15 -14 30 -23 33 -20 6 6 -38 45 -52 46 -5 0 3 -11 19
-26z"/>
<path d="M9831 8234 c0 -11 3 -14 6 -6 3 7 2 16 -1 19 -3 4 -6 -2 -5 -13z"/>
<path d="M6600 8220 c0 -5 5 -10 11 -10 5 0 7 5 4 10 -3 6 -8 10 -11 10 -2 0
-4 -4 -4 -10z"/>
<path d="M9580 8212 c0 -12 19 -26 26 -19 2 2 -2 10 -11 17 -9 8 -15 8 -15 2z"/>
<path d="M9671 8124 c0 -11 3 -14 6 -6 3 7 2 16 -1 19 -3 4 -6 -2 -5 -13z"/>
<path d="M6626 8091 c-4 -7 -5 -15 -2 -18 9 -9 19 4 14 18 -4 11 -6 11 -12 0z"/>
<path d="M8320 8080 c0 -5 5 -10 10 -10 6 0 10 5 10 10 0 6 -4 10 -10 10 -5 0
-10 -4 -10 -10z"/>
<path d="M9446 8065 c8 -37 10 -39 17 -23 2 8 -2 23 -10 33 -13 19 -14 18 -7
-10z"/>
<path d="M8826 8034 c10 -58 26 -68 22 -15 -2 26 -9 46 -16 49 -10 3 -12 -5
-6 -34z"/>
<path d="M9675 8050 c-3 -5 -1 -10 4 -10 6 0 11 5 11 10 0 6 -2 10 -4 10 -3 0
-8 -4 -11 -10z"/>
<path d="M9775 8020 c3 -5 8 -10 11 -10 2 0 4 5 4 10 0 6 -5 10 -11 10 -5 0
-7 -4 -4 -10z"/>
<path d="M5275 8000 c28 -12 45 -12 45 0 0 6 -15 10 -32 9 -28 0 -30 -2 -13
-9z"/>
<path d="M6325 8000 c-3 -5 -1 -10 4 -10 6 0 11 5 11 10 0 6 -2 10 -4 10 -3 0
-8 -4 -11 -10z"/>
<path d="M9610 7990 c0 -5 10 -10 23 -10 18 0 19 2 7 10 -19 13 -30 13 -30 0z"/>
<path d="M9673 7983 c9 -2 23 -2 30 0 6 3 -1 5 -18 5 -16 0 -22 -2 -12 -5z"/>
<path d="M6325 7970 c-3 -5 -1 -10 4 -10 6 0 11 5 11 10 0 6 -2 10 -4 10 -3 0
-8 -4 -11 -10z"/>
<path d="M5262 7953 c-10 -18 -9 -23 8 -28 11 -3 19 -10 17 -15 -1 -4 3 -9 8
-9 6 -1 11 10 13 24 2 17 -1 25 -12 25 -8 0 -16 6 -18 12 -3 8 -9 5 -16 -9z"/>
<path d="M9690 7959 c0 -5 5 -7 10 -4 6 3 10 8 10 11 0 2 -4 4 -10 4 -5 0 -10
-5 -10 -11z"/>
<path d="M9720 7959 c0 -5 9 -9 20 -9 11 0 20 4 20 8 0 4 -9 8 -20 9 -11 1
-20 -2 -20 -8z"/>
<path d="M8837 7953 c-4 -3 -3 -11 2 -17 5 -6 11 -22 14 -36 3 -16 5 -10 6 18
1 39 -6 51 -22 35z"/>
<path d="M9620 7889 c0 -17 4 -28 10 -24 6 3 10 17 10 31 0 13 -4 24 -10 24
-5 0 -10 -14 -10 -31z"/>
<path d="M5120 7900 c0 -5 5 -10 10 -10 6 0 10 5 10 10 0 6 -4 10 -10 10 -5 0
-10 -4 -10 -10z"/>
<path d="M5300 7865 c0 -9 6 -12 15 -9 8 4 15 7 15 9 0 2 -7 5 -15 9 -9 3 -15
0 -15 -9z"/>
<path d="M6476 7857 c3 -10 9 -15 12 -12 3 3 0 11 -7 18 -10 9 -11 8 -5 -6z"/>
<path d="M9663 7850 c-1 -11 4 -20 13 -20 16 0 16 2 8 24 -8 22 -19 20 -21 -4z"/>
<path d="M9746 7841 c2 -19 -3 -35 -17 -47 -14 -12 -16 -20 -8 -25 7 -4 19 -1
26 7 8 8 23 14 34 14 25 0 25 20 -1 27 -22 6 -27 38 -7 46 6 3 2 6 -9 6 -18 1
-21 -4 -18 -28z"/>
<path d="M9636 7824 c-3 -9 -1 -23 6 -31 9 -11 9 -19 0 -33 -8 -13 -8 -21 -1
-26 6 -3 8 -11 6 -18 -2 -6 -1 -20 4 -31 6 -17 8 -17 8 -2 1 12 9 17 28 17 14
0 23 3 19 7 -4 4 -15 8 -24 8 -26 0 -25 72 1 79 10 2 16 10 12 15 -3 6 -11 8
-17 5 -6 -4 -17 1 -23 10 -12 15 -13 15 -19 0z"/>
<path d="M5282 7821 c-11 -7 -11 -9 2 -14 10 -4 16 -1 16 8 0 17 -1 17 -18 6z"/>
<path d="M6220 7814 c0 -8 5 -12 10 -9 6 4 8 11 5 16 -9 14 -15 11 -15 -7z"/>
<path d="M8857 7792 c-3 -15 -2 -33 3 -41 5 -9 9 -1 12 23 5 44 -7 59 -15 18z"/>
<path d="M9806 7783 c-6 -14 -5 -15 5 -6 7 7 10 15 7 18 -3 3 -9 -2 -12 -12z"/>
<path d="M5100 7780 c0 -5 5 -10 10 -10 6 0 10 5 10 10 0 6 -4 10 -10 10 -5 0
-10 -4 -10 -10z"/>
<path d="M9687 7750 c-3 -11 -1 -20 4 -20 5 0 9 9 9 20 0 11 -2 20 -4 20 -2 0
-6 -9 -9 -20z"/>
<path d="M9795 7740 c-3 -5 1 -10 9 -10 9 0 16 5 16 10 0 6 -4 10 -9 10 -6 0
-13 -4 -16 -10z"/>
<path d="M5270 7720 c-12 -8 -13 -11 -1 -19 9 -6 11 -17 6 -32 -6 -18 -4 -21
5 -13 6 6 10 25 8 42 -2 25 -6 30 -18 22z"/>
<path d="M8855 7721 c-6 -11 9 -23 19 -14 9 9 7 23 -3 23 -6 0 -12 -4 -16 -9z"/>
<path d="M5230 7710 c0 -5 5 -10 11 -10 5 0 7 5 4 10 -3 6 -8 10 -11 10 -2 0
-4 -4 -4 -10z"/>
<path d="M9790 7700 c0 -12 8 -12 35 0 18 8 17 9 -7 9 -16 1 -28 -3 -28 -9z"/>
<path d="M8945 7680 c3 -5 0 -10 -8 -10 -8 0 -17 -9 -20 -19 -4 -16 2 -20 32
-24 20 -2 44 0 55 5 17 9 16 11 -13 25 -17 9 -31 19 -31 24 0 5 -5 9 -11 9 -5
0 -7 -4 -4 -10z"/>
<path d="M5960 7665 c-7 -8 -22 -15 -33 -15 -13 0 -17 -4 -11 -9 13 -14 174
-26 174 -13 0 12 -24 22 -55 22 -12 0 -25 7 -29 15 -3 8 -12 15 -19 15 -8 0
-20 -7 -27 -15z"/>
<path d="M5478 7653 c7 -3 16 -2 19 1 4 3 -2 6 -13 5 -11 0 -14 -3 -6 -6z"/>
<path d="M5540 7650 c0 -5 7 -10 16 -10 8 0 12 5 9 10 -3 6 -10 10 -16 10 -5
0 -9 -4 -9 -10z"/>
<path d="M5580 7650 c0 -5 5 -10 11 -10 5 0 7 5 4 10 -3 6 -8 10 -11 10 -2 0
-4 -4 -4 -10z"/>
<path d="M8876 7651 c-4 -5 -2 -12 3 -15 5 -4 12 -2 15 3 4 5 2 12 -3 15 -5 4
-12 2 -15 -3z"/>
<path d="M5650 7640 c-11 -7 -4 -10 28 -10 23 0 42 5 42 10 0 13 -50 13 -70 0z"/>
<path d="M5792 7641 c-11 -7 -11 -9 2 -14 20 -8 48 2 40 14 -7 11 -25 11 -42
0z"/>
<path d="M9654 7638 c-5 -8 15 -22 23 -15 3 3 15 2 27 -3 12 -4 29 -4 37 1 9
4 45 4 84 -2 58 -9 70 -9 83 5 20 19 27 18 -131 20 -66 0 -121 -2 -123 -6z"/>
<path d="M5168 7633 c7 -3 16 -2 19 1 4 3 -2 6 -13 5 -11 0 -14 -3 -6 -6z"/>
<path d="M5248 7633 c6 -2 18 -2 25 0 6 3 1 5 -13 5 -14 0 -19 -2 -12 -5z"/>
<path d="M8580 7630 c0 -5 5 -10 11 -10 5 0 7 5 4 10 -3 6 -8 10 -11 10 -2 0
-4 -4 -4 -10z"/>
<path d="M8665 7630 c8 -13 55 -13 75 0 11 7 2 10 -33 10 -30 0 -46 -4 -42
-10z"/>
<path d="M9178 7633 c7 -3 16 -2 19 1 4 3 -2 6 -13 5 -11 0 -14 -3 -6 -6z"/>
<path d="M8826 7622 c-2 -4 4 -13 14 -20 14 -8 21 -8 26 -1 4 6 0 15 -7 20
-18 11 -26 11 -33 1z"/>
<path d="M5271 7565 c-1 -11 -8 -31 -17 -43 -14 -21 -14 -22 10 -22 20 0 26 5
25 23 0 12 -4 31 -9 42 -9 20 -9 20 -9 0z"/>
<path d="M11708 7723 c7 -3 16 -2 19 1 4 3 -2 6 -13 5 -11 0 -14 -3 -6 -6z"/>
<path d="M11698 7673 c7 -3 16 -2 19 1 4 3 -2 6 -13 5 -11 0 -14 -3 -6 -6z"/>
<path d="M11690 7620 c19 -13 30 -13 30 0 0 6 -10 10 -22 10 -19 0 -20 -2 -8
-10z"/>
<path d="M11667 7549 c7 -7 15 -10 18 -7 3 3 -2 9 -12 12 -14 6 -15 5 -6 -5z"/>
<path d="M11673 7523 c9 -2 17 -9 17 -14 0 -5 -8 -9 -17 -10 -15 0 -15 -2 2
-9 18 -8 18 -9 -4 -9 -19 -1 -22 -4 -14 -12 18 -18 40 -4 45 28 3 25 1 29 -22
30 -14 0 -17 -1 -7 -4z"/>
<path d="M11660 7440 c19 -13 30 -13 30 0 0 6 -10 10 -22 10 -19 0 -20 -2 -8
-10z"/>
<path d="M11654 7415 c18 -14 18 -15 2 -15 -9 0 -14 -4 -11 -10 3 -5 0 -10 -7
-10 -8 -1 -6 -6 6 -15 20 -15 14 -35 -12 -35 -15 -1 -15 -2 2 -15 19 -14 19
-15 1 -15 -18 0 -18 -1 1 -15 18 -13 18 -14 -6 -9 -23 5 -24 4 -7 -9 9 -8 17
-17 17 -20 0 -4 -8 -4 -17 0 -15 5 -16 3 -5 -8 19 -20 30 -1 48 84 17 85 14
107 -13 107 -17 -1 -16 -2 1 -15z"/>
<path d="M11607 7219 c7 -7 15 -10 18 -7 3 3 -2 9 -12 12 -14 6 -15 5 -6 -5z"/>
<path d="M11500 7076 c0 -9 70 -59 75 -54 3 3 -13 17 -35 32 -22 14 -40 24
-40 22z"/>
<path d="M3325 7430 c-3 -5 -2 -10 4 -10 5 0 13 5 16 10 3 6 2 10 -4 10 -5 0
-13 -4 -16 -10z"/>
<path d="M3345 7380 c-3 -6 1 -7 9 -4 18 7 21 14 7 14 -6 0 -13 -4 -16 -10z"/>
<path d="M3355 7360 c-3 -5 -2 -10 4 -10 5 0 13 5 16 10 3 6 2 10 -4 10 -5 0
-13 -4 -16 -10z"/>
<path d="M3370 7341 c-8 -6 -19 -7 -25 -4 -5 3 -4 0 3 -8 10 -11 15 -10 29 4
19 19 16 22 -7 8z"/>
<path d="M3375 7310 c-3 -6 1 -7 9 -4 18 7 21 14 7 14 -6 0 -13 -4 -16 -10z"/>
<path d="M3380 7260 c-13 -8 -13 -10 2 -10 9 0 20 5 23 10 8 13 -5 13 -25 0z"/>
<path d="M3390 7208 c0 -11 28 -10 35 1 3 6 -4 9 -15 8 -11 -1 -20 -5 -20 -9z"/>
<path d="M3418 7193 c-10 -2 -18 -6 -18 -8 0 -5 41 -99 44 -103 6 -6 36 10 36
20 0 5 -5 6 -12 2 -7 -5 -9 -2 -5 8 4 12 0 15 -16 11 -22 -5 -22 -5 -2 10 l20
16 -20 1 c-11 1 -14 4 -7 7 19 7 14 23 -5 16 -16 -6 -16 -5 -4 10 7 9 12 16
10 16 -2 -1 -12 -3 -21 -6z"/>
<path d="M3455 7070 c-8 -12 4 -52 13 -46 4 2 8 -7 9 -21 2 -39 20 -51 41 -28
16 18 16 18 0 6 -20 -15 -25 -2 -6 17 9 9 8 12 -6 12 -16 0 -17 2 -5 17 12 14
12 16 0 8 -11 -6 -13 -4 -8 7 4 12 0 15 -16 11 -22 -5 -22 -5 -2 10 17 14 18
16 3 17 -9 0 -20 -5 -23 -10z"/>
<path d="M3515 6950 c-3 -5 -1 -10 4 -10 6 0 11 5 11 10 0 6 -2 10 -4 10 -3 0
-8 -4 -11 -10z"/>
<path d="M5211 7280 c9 -5 28 -6 45 0 27 8 26 8 -16 9 -32 0 -40 -2 -29 -9z"/>
<path d="M5408 7283 c6 -2 18 -2 25 0 6 3 1 5 -13 5 -14 0 -19 -2 -12 -5z"/>
<path d="M5454 7281 c6 -10 584 -6 594 3 3 3 -131 6 -297 6 -178 0 -300 -4
-297 -9z"/>
<path d="M6078 7283 c6 -2 18 -2 25 0 6 3 1 5 -13 5 -14 0 -19 -2 -12 -5z"/>
<path d="M6140 7285 c0 -2 9 -9 19 -14 14 -8 22 -7 31 4 11 13 8 15 -19 15
-17 0 -31 -2 -31 -5z"/>
<path d="M6280 7231 c-10 -19 -20 -21 -116 -21 -76 0 -103 -3 -98 -11 5 -8 37
-10 102 -7 l95 5 -6 -83 c-6 -100 8 -113 18 -16 7 66 31 115 45 91 5 -7 9 -5
13 5 4 10 1 16 -9 16 -8 0 -14 7 -12 16 4 25 -19 28 -32 5z"/>
<path d="M5198 7203 c7 -3 16 -2 19 1 4 3 -2 6 -13 5 -11 0 -14 -3 -6 -6z"/>
<path d="M5663 7003 c15 -2 37 -2 50 0 12 2 0 4 -28 4 -27 0 -38 -2 -22 -4z"/>
<path d="M5544 6981 c-72 -29 -118 -65 -167 -132 -29 -38 -33 -49 -17 -49 5 0
20 19 34 43 26 43 124 117 156 117 10 0 23 6 30 14 6 8 21 17 33 19 19 4 19 4
-3 5 -14 0 -43 -7 -66 -17z"/>
<path d="M5758 6993 c6 -2 18 -2 25 0 6 3 1 5 -13 5 -14 0 -19 -2 -12 -5z"/>
<path d="M5635 6963 c-63 -13 -144 -49 -173 -77 -37 -34 -85 -122 -97 -173 -5
-26 -12 -33 -31 -33 -20 0 -24 -5 -24 -29 0 -16 -3 -44 -6 -62 -5 -26 -4 -31
5 -23 7 6 13 30 14 52 1 27 6 42 14 42 15 0 16 -19 4 -108 -6 -37 -17 -132
-26 -212 -9 -80 -20 -185 -26 -235 -10 -92 -25 -145 -40 -145 -5 0 -4 12 2 27
6 15 7 51 2 87 l-7 61 -12 -105 c-7 -58 -19 -156 -26 -218 -12 -98 -12 -112 1
-110 8 2 16 9 19 17 3 8 0 11 -7 7 -6 -4 -11 -1 -11 8 0 23 28 8 32 -17 3 -22
5 -22 188 -19 102 2 187 6 189 7 2 2 -19 7 -47 11 -35 4 -52 12 -55 23 -4 14
-5 14 -6 -1 0 -10 -6 -18 -12 -18 -5 0 -8 4 -5 9 10 15 -5 40 -20 34 -27 -10
-14 15 21 38 19 13 35 32 35 41 0 9 4 19 8 22 5 3 6 26 2 51 -5 31 -3 45 4 45
7 0 11 18 11 45 0 30 -4 45 -13 45 -9 0 -10 5 -4 18 5 9 7 22 5 29 -2 6 1 14
6 18 15 9 -5 45 -24 45 -19 0 -19 16 0 24 11 4 13 14 8 36 -3 17 -2 30 3 29
21 -4 26 2 13 17 -10 13 -10 17 1 24 8 5 10 14 5 26 -5 11 -7 25 -6 32 1 6 -5
12 -14 12 -9 0 -13 5 -10 10 4 6 11 8 16 5 5 -4 9 5 9 19 0 14 5 26 10 26 6 0
10 5 10 10 0 6 -7 10 -16 10 -10 0 -13 6 -10 18 3 10 8 37 10 61 5 48 17 61
58 61 15 0 30 5 33 10 4 6 -14 10 -46 10 -49 0 -51 1 -33 15 10 8 27 15 37 15
9 0 16 3 15 8 -4 12 99 115 103 103 5 -13 97 -22 105 -10 10 18 32 8 38 -16 5
-18 12 -24 29 -22 19 2 22 -3 22 -38 0 -46 -8 -55 -52 -55 -18 0 -33 -5 -33
-10 0 -6 24 -9 58 -8 l58 3 -1 35 c0 19 -4 40 -8 47 -4 6 -3 23 2 37 13 32 -7
112 -39 159 -52 77 -169 121 -265 100z m255 -244 c0 -5 -4 -9 -10 -9 -5 0 -10
7 -10 16 0 8 5 12 10 9 6 -3 10 -10 10 -16z m-360 -255 c0 -8 -5 -12 -10 -9
-6 4 -8 11 -5 16 9 14 15 11 15 -7z m-277 -571 c-5 -2 -7 -18 -5 -35 3 -21 1
-29 -7 -24 -15 10 -14 59 1 74 10 10 14 10 17 0 2 -6 0 -13 -6 -15z"/>
<path d="M5321 6704 c0 -11 3 -14 6 -6 3 7 2 16 -1 19 -3 4 -6 -2 -5 -13z"/>
<path d="M6270 6674 c0 -8 5 -12 10 -9 6 4 8 11 5 16 -9 14 -15 11 -15 -7z"/>
<path d="M5963 6645 c-17 -19 -16 -25 2 -25 8 0 15 9 15 20 0 23 -1 24 -17 5z"/>
<path d="M6290 6629 c0 -5 5 -7 10 -4 6 3 10 8 10 11 0 2 -4 4 -10 4 -5 0 -10
-5 -10 -11z"/>
<path d="M5922 6520 c-3 -55 -2 -58 17 -53 26 7 27 30 4 56 -13 15 -15 21 -5
24 16 6 16 20 -1 26 -9 3 -13 -11 -15 -53z"/>
<path d="M5290 6511 c0 -17 2 -31 4 -31 8 0 13 51 5 56 -5 3 -9 -9 -9 -25z"/>
<path d="M5282 6440 c0 -19 2 -27 5 -17 2 9 2 25 0 35 -3 9 -5 1 -5 -18z"/>
<path d="M5940 6439 c0 -5 5 -7 10 -4 6 3 10 8 10 11 0 2 -4 4 -10 4 -5 0 -10
-5 -10 -11z"/>
<path d="M6173 6390 c0 -36 2 -50 4 -32 2 17 2 47 0 65 -2 17 -4 3 -4 -33z"/>
<path d="M5912 6385 c2 -21 4 -23 16 -11 8 8 11 19 8 25 -13 20 -26 12 -24
-14z"/>
<path d="M5278 6387 c-5 -10 -8 -33 -7 -50 0 -31 1 -31 10 -7 5 13 9 36 7 50
-3 21 -4 22 -10 7z"/>
<path d="M5900 6343 c0 -5 5 -15 10 -23 8 -12 10 -11 10 8 0 12 -4 22 -10 22
-5 0 -10 -3 -10 -7z"/>
<path d="M5892 6280 c0 -14 2 -19 5 -12 2 6 2 18 0 25 -3 6 -5 1 -5 -13z"/>
<path d="M5263 6255 c0 -22 2 -30 4 -17 2 12 2 30 0 40 -3 9 -5 -1 -4 -23z"/>
<path d="M5887 6243 c-11 -10 -8 -51 3 -58 6 -4 10 8 10 29 0 37 -2 41 -13 29z"/>
<path d="M5253 6175 c0 -22 2 -30 4 -17 2 12 2 30 0 40 -3 9 -5 -1 -4 -23z"/>
<path d="M6025 6190 c3 -5 8 -10 11 -10 2 0 4 5 4 10 0 6 -5 10 -11 10 -5 0
-7 -4 -4 -10z"/>
<path d="M5880 6117 c0 -9 -6 -16 -12 -14 -10 1 -13 -20 -14 -77 -1 -73 -3
-80 -23 -83 -16 -2 -21 2 -19 14 2 12 -4 17 -21 18 -19 0 -24 -6 -27 -32 -3
-24 0 -33 11 -33 24 0 18 -26 -10 -44 -29 -19 -35 -52 -8 -42 9 4 20 1 25 -6
6 -11 8 -10 8 0 0 7 5 10 10 7 15 -9 12 -25 -5 -25 -8 0 -15 -5 -15 -11 0 -6
10 -9 23 -7 16 2 23 11 25 31 2 15 8 27 13 27 14 0 11 -48 -3 -53 -10 -4 -10
-7 -1 -17 23 -25 43 7 43 69 1 49 2 54 14 38 13 -16 14 -16 20 5 8 31 8 48 -1
47 -21 -3 -33 3 -33 17 0 8 3 13 8 11 9 -6 9 159 -1 169 -4 4 -7 0 -7 -9z
m-40 -227 c0 -16 -26 -40 -44 -40 -14 0 8 30 23 31 10 0 11 2 4 6 -18 7 -16
23 2 23 8 0 15 -9 15 -20z"/>
<path d="M6140 6085 c0 -8 5 -15 10 -15 6 0 10 7 10 15 0 8 -4 15 -10 15 -5 0
-10 -7 -10 -15z"/>
<path d="M4930 6031 c0 -6 5 -13 10 -16 6 -3 10 1 10 9 0 9 -4 16 -10 16 -5 0
-10 -4 -10 -9z"/>
<path d="M6190 5835 c0 -15 6 -25 14 -25 19 0 28 14 20 34 -10 25 -34 19 -34
-9z"/>
<path d="M6098 5753 c18 -2 45 -2 60 0 15 2 0 4 -33 4 -33 0 -45 -2 -27 -4z"/>
<path d="M5678 5703 c6 -2 18 -2 25 0 6 3 1 5 -13 5 -14 0 -19 -2 -12 -5z"/>
<path d="M5790 5673 c8 -3 17 -9 20 -13 3 -4 11 -2 18 6 11 12 8 14 -20 13
-18 0 -26 -3 -18 -6z"/>
<path d="M5533 5653 c4 -3 32 -6 62 -5 30 0 57 -4 60 -9 9 -14 41 -11 55 6 11
13 0 15 -85 15 -54 0 -95 -3 -92 -7z"/>
<path d="M4948 5603 c7 -3 16 -2 19 1 4 3 -2 6 -13 5 -11 0 -14 -3 -6 -6z"/>
<path d="M5338 5593 c28 -2 76 -2 105 0 28 2 5 3 -53 3 -58 0 -81 -1 -52 -3z"/>
<path d="M5513 5593 c8 -7 389 -5 396 3 2 2 -87 4 -199 4 -112 0 -200 -3 -197
-7z"/>
<path d="M5948 5593 c12 -2 32 -2 45 0 12 2 2 4 -23 4 -25 0 -35 -2 -22 -4z"/>
<path d="M9430 7330 c0 -5 5 -10 11 -10 5 0 7 5 4 10 -3 6 -8 10 -11 10 -2 0
-4 -4 -4 -10z"/>
<path d="M8820 7286 c0 -9 30 -14 35 -6 4 6 -3 10 -14 10 -12 0 -21 -2 -21 -4z"/>
<path d="M9415 7280 l-30 -8 27 -1 c15 0 30 4 33 9 3 6 5 9 3 9 -2 -1 -16 -5
-33 -9z"/>
<path d="M9535 7280 c-19 -8 -19 -9 2 -9 12 -1 25 4 28 9 7 12 -2 12 -30 0z"/>
<path d="M9650 7280 c0 -5 5 -10 10 -10 6 0 10 5 10 10 0 6 -4 10 -10 10 -5 0
-10 -4 -10 -10z"/>
<path d="M9083 7273 c15 -2 37 -2 50 0 12 2 0 4 -28 4 -27 0 -38 -2 -22 -4z"/>
<path d="M9193 7273 c15 -2 39 -2 55 0 15 2 2 4 -28 4 -30 0 -43 -2 -27 -4z"/>
<path d="M9288 7273 c7 -3 16 -2 19 1 4 3 -2 6 -13 5 -11 0 -14 -3 -6 -6z"/>
<path d="M9650 7240 c0 -5 5 -10 11 -10 5 0 7 5 4 10 -3 6 -8 10 -11 10 -2 0
-4 -4 -4 -10z"/>
<path d="M9993 7203 c9 -2 25 -2 35 0 9 3 1 5 -18 5 -19 0 -27 -2 -17 -5z"/>
<path d="M8623 7115 c0 -23 1 -24 12 -8 13 18 11 33 -4 33 -5 0 -8 -11 -8 -25z"/>
<path d="M9703 7133 c9 -2 23 -2 30 0 6 3 -1 5 -18 5 -16 0 -22 -2 -12 -5z"/>
<path d="M8894 7010 c3 -14 6 -33 6 -43 0 -10 5 -15 10 -12 15 9 12 37 -7 60
-15 20 -15 19 -9 -5z"/>
<path d="M8620 7003 c0 -10 4 -24 9 -31 6 -11 9 -10 13 5 3 10 3 24 1 31 -7
18 -23 15 -23 -5z"/>
<path d="M8691 7004 c0 -11 3 -14 6 -6 3 7 2 16 -1 19 -3 4 -6 -2 -5 -13z"/>
<path d="M9165 7001 c-31 -8 -75 -29 -75 -36 0 -2 26 5 58 16 43 15 73 19 122
15 35 -2 66 -9 68 -15 2 -5 10 -7 18 -4 7 3 28 0 46 -6 46 -16 21 3 -30 22
-44 18 -151 21 -207 8z"/>
<path d="M9170 6955 c-61 -19 -128 -78 -152 -134 -21 -50 -24 -89 -14 -196 3
-38 8 -106 10 -150 3 -44 11 -150 19 -235 9 -85 18 -204 22 -265 8 -138 29
-205 63 -205 21 0 24 -4 20 -25 -5 -24 -3 -25 48 -25 58 0 59 1 44 31 -13 23
-30 25 -30 4 0 -25 -24 -17 -38 12 -10 23 -10 30 3 42 13 14 15 13 15 -8 0
-23 1 -23 19 -7 13 12 17 28 15 56 -3 41 3 49 23 29 6 -6 17 -8 23 -4 8 5 3
13 -15 25 -34 23 -58 57 -45 65 5 3 10 11 10 17 0 7 -5 7 -14 -1 -11 -9 -18
-4 -33 28 -22 44 -15 61 23 61 25 0 40 28 24 44 -5 5 -10 20 -10 33 0 19 -5
23 -33 23 -34 0 -73 32 -61 51 4 6 6 44 5 84 -1 44 3 76 9 80 8 5 6 13 -6 26
-22 24 -29 73 -9 65 7 -2 16 2 19 10 3 8 1 14 -4 14 -15 0 -12 56 4 69 8 7 36
14 62 17 46 4 75 14 41 14 -18 0 -13 29 7 42 7 5 4 8 -6 8 -10 0 -17 5 -15 12
1 6 -9 15 -23 19 l-25 7 28 1 c37 1 42 -1 39 -19 -3 -13 -2 -13 7 0 6 8 11 11
12 5 0 -5 3 -3 7 6 5 12 13 14 27 8 17 -6 17 -8 3 -8 -10 -1 -18 -7 -18 -15 0
-8 8 -17 18 -19 16 -4 16 -5 0 -6 -22 -1 -25 -41 -3 -41 8 0 15 -3 15 -7 0 -5
10 -19 21 -33 14 -17 19 -19 15 -7 -10 33 23 31 57 -3 29 -30 30 -32 9 -27
-23 5 -23 5 -6 -14 16 -18 16 -19 -7 -19 -22 -1 -23 -2 -6 -14 9 -7 17 -16 17
-20 0 -3 -8 -6 -17 -7 -11 0 -13 -3 -5 -6 6 -2 12 -13 12 -24 0 -10 4 -19 9
-19 6 0 6 -12 1 -30 -7 -25 -6 -30 8 -30 12 0 13 -3 5 -8 -15 -10 -6 -49 13
-56 8 -3 14 -10 14 -17 0 -6 -6 -9 -14 -6 -20 8 -28 -4 -14 -20 6 -7 8 -16 5
-19 -3 -3 -2 -17 3 -30 6 -15 6 -24 0 -24 -6 0 -10 7 -10 15 0 8 -4 15 -10 15
-14 0 -13 -23 2 -38 7 -7 8 -12 2 -12 -5 0 -5 -3 1 -8 6 -4 18 -22 27 -40 15
-28 16 -34 3 -38 -20 -8 -19 -31 3 -43 16 -9 16 -11 -3 -25 -14 -11 -16 -15
-6 -16 11 0 12 -3 4 -11 -6 -6 -9 -18 -6 -25 3 -8 -1 -14 -10 -14 -8 0 -17
-11 -19 -25 -5 -24 7 -36 14 -15 4 11 48 2 48 -11 0 -5 -6 -6 -13 -3 -10 3
-12 -5 -9 -31 3 -21 10 -35 18 -35 19 0 18 -19 -1 -26 -8 -4 -15 -12 -15 -20
0 -8 -6 -14 -12 -15 -7 -1 -28 -2 -46 -4 -18 -1 -36 -5 -39 -9 -4 -3 57 -6
134 -6 104 0 142 -3 146 -12 3 -10 7 -10 19 0 13 10 17 10 22 0 7 -15 0 166
-10 261 -7 62 -6 64 14 59 27 -7 32 9 21 63 -5 24 -16 96 -23 159 -10 79 -14
97 -13 56 0 -38 -3 -61 -11 -64 -7 -2 -10 -13 -6 -28 3 -13 2 -24 -4 -24 -12
0 -19 45 -32 210 -5 69 -14 160 -20 204 -5 43 -7 82 -4 88 3 5 15 6 27 2 21
-6 21 -6 2 12 -10 11 -20 17 -21 14 -1 -3 -19 29 -41 70 -75 146 -223 211
-373 165z m328 -284 c3 -8 -1 -12 -9 -9 -7 2 -15 10 -17 17 -3 8 1 12 9 9 7
-2 15 -10 17 -17z m-338 -5 c0 -3 -4 -8 -10 -11 -5 -3 -10 -1 -10 4 0 6 5 11
10 11 6 0 10 -2 10 -4z m25 -16 c-3 -5 -11 -10 -16 -10 -6 0 -7 5 -4 10 3 6
11 10 16 10 6 0 7 -4 4 -10z m-100 -30 c4 -6 -5 -10 -19 -10 -14 0 -26 5 -26
10 0 6 9 10 19 10 11 0 23 -4 26 -10z m350 -200 c3 -5 1 -10 -4 -10 -6 0 -11
5 -11 10 0 6 2 10 4 10 3 0 8 -4 11 -10z m-285 -291 c0 -5 -4 -9 -10 -9 -5 0
-10 7 -10 16 0 8 5 12 10 9 6 -3 10 -10 10 -16z m10 -39 c0 -5 -4 -10 -10 -10
-5 0 -10 5 -10 10 0 6 5 10 10 10 6 0 10 -4 10 -10z m7 -136 c-3 -3 -12 -4
-19 -1 -8 3 -5 6 6 6 11 1 17 -2 13 -5z"/>
<path d="M8636 6932 c-4 -7 -4 -38 0 -70 7 -54 8 -55 16 -25 9 36 -3 115 -16
95z"/>
<path d="M9615 6930 c3 -5 8 -10 11 -10 2 0 4 5 4 10 0 6 -5 10 -11 10 -5 0
-7 -4 -4 -10z"/>
<path d="M9015 6900 c-10 -11 -16 -22 -13 -25 3 -3 13 6 22 20 20 30 16 32 -9
5z"/>
<path d="M9651 6894 c0 -11 3 -14 6 -6 3 7 2 16 -1 19 -3 4 -6 -2 -5 -13z"/>
<path d="M8697 6894 c-4 -4 -4 -23 -1 -41 6 -31 4 -35 -25 -46 -37 -14 -41
-37 -6 -37 31 0 45 -30 46 -103 1 -29 3 -43 6 -32 9 38 22 40 35 4 l12 -34 6
30 c3 17 12 30 20 31 35 2 40 5 40 20 0 13 -3 14 -14 5 -40 -33 -106 18 -70
54 24 24 53 18 65 -12 l11 -28 12 34 c8 21 22 38 41 45 45 19 14 30 -80 31
l-80 0 -5 43 c-3 24 -8 40 -13 36z"/>
<path d="M9854 6878 c-4 -5 -3 -12 0 -15 7 -8 36 4 36 15 0 11 -29 11 -36 0z"/>
<path d="M9652 6840 c0 -19 4 -46 8 -60 7 -23 8 -22 8 10 0 19 -4 46 -8 60 -7
23 -8 22 -8 -10z"/>
<path d="M8969 6685 c-3 -26 0 -77 5 -83 11 -10 19 7 18 39 -1 29 -20 66 -23
44z"/>
<path d="M9590 6600 c0 -11 5 -20 11 -20 6 0 9 6 6 14 -3 8 -1 17 6 20 7 2 4
5 -5 5 -12 1 -18 -6 -18 -19z"/>
<path d="M8717 6603 c-3 -5 -1 -17 4 -28 7 -17 8 -17 8 8 1 27 -4 34 -12 20z"/>
<path d="M9600 6521 c0 -37 2 -42 15 -31 13 11 15 7 16 -26 1 -22 5 -50 10
-64 5 -16 6 2 3 50 -4 55 -11 80 -25 95 -19 19 -19 19 -19 -24z"/>
<path d="M8977 6483 c-8 -13 3 -53 14 -53 11 0 11 31 0 49 -5 7 -11 9 -14 4z"/>
<path d="M8935 6470 c3 -5 11 -10 16 -10 6 0 7 5 4 10 -3 6 -11 10 -16 10 -6
0 -7 -4 -4 -10z"/>
<path d="M9920 6421 c0 -25 6 -27 13 -6 4 8 2 17 -3 20 -6 4 -10 -3 -10 -14z"/>
<path d="M9125 6340 c3 -5 8 -10 11 -10 2 0 4 5 4 10 0 6 -5 10 -11 10 -5 0
-7 -4 -4 -10z"/>
<path d="M9120 6230 c0 -5 5 -10 10 -10 6 0 10 5 10 10 0 6 -4 10 -10 10 -5 0
-10 -4 -10 -10z"/>
<path d="M9001 6214 c0 -11 3 -14 6 -6 3 7 2 16 -1 19 -3 4 -6 -2 -5 -13z"/>
<path d="M9130 6200 c0 -5 5 -10 10 -10 6 0 10 5 10 10 0 6 -4 10 -10 10 -5 0
-10 -4 -10 -10z"/>
<path d="M9991 6154 c0 -11 3 -14 6 -6 3 7 2 16 -1 19 -3 4 -6 -2 -5 -13z"/>
<path d="M8810 6096 c0 -9 5 -16 10 -16 6 0 10 4 10 9 0 6 -4 13 -10 16 -5 3
-10 -1 -10 -9z"/>
<path d="M9401 6074 c0 -11 3 -14 6 -6 3 7 2 16 -1 19 -3 4 -6 -2 -5 -13z"/>
<path d="M9012 6055 c0 -16 2 -22 5 -12 2 9 2 23 0 30 -3 6 -5 -1 -5 -18z"/>
<path d="M9972 6050 c0 -14 2 -19 5 -12 2 6 2 18 0 25 -3 6 -5 1 -5 -13z"/>
<path d="M8558 6053 c7 -3 16 -2 19 1 4 3 -2 6 -13 5 -11 0 -14 -3 -6 -6z"/>
<path d="M9180 6025 c0 -8 4 -15 10 -15 5 0 7 7 4 15 -4 8 -8 15 -10 15 -2 0
-4 -7 -4 -15z"/>
<path d="M9378 6033 c7 -3 16 -2 19 1 4 3 -2 6 -13 5 -11 0 -14 -3 -6 -6z"/>
<path d="M9694 5915 c2 -50 5 -92 6 -95 3 -6 6 -29 8 -52 1 -10 7 -18 12 -18
8 0 8 21 3 63 -4 34 -7 72 -8 85 0 12 -3 22 -7 22 -4 0 -7 16 -6 35 1 19 -2
38 -6 42 -4 4 -5 -33 -2 -82z"/>
<path d="M9020 5909 c0 -5 5 -7 10 -4 6 3 10 8 10 11 0 2 -4 4 -10 4 -5 0 -10
-5 -10 -11z"/>
<path d="M9025 5880 c3 -5 8 -10 11 -10 2 0 4 5 4 10 0 6 -5 10 -11 10 -5 0
-7 -4 -4 -10z"/>
<path d="M9250 5732 c0 -4 18 -9 40 -10 23 -2 40 2 40 8 0 5 -18 10 -40 10
-22 0 -40 -4 -40 -8z"/>
<path d="M9148 5703 c-10 -3 -18 -9 -18 -14 0 -12 37 -12 45 0 7 12 -5 19 -27
14z"/>
<path d="M9229 5693 c-1 -5 -1 -12 0 -17 1 -4 -4 -14 -10 -22 -10 -12 -2 -14
45 -14 36 0 55 4 51 10 -3 6 -22 10 -41 10 -25 0 -34 4 -34 16 0 12 6 15 24
10 14 -3 28 -2 31 4 4 6 -8 10 -29 10 -20 0 -37 -3 -37 -7z"/>
<path d="M9405 5690 c4 -6 11 -8 16 -5 14 9 11 15 -7 15 -8 0 -12 -5 -9 -10z"/>
<path d="M9477 5686 c-6 -16 2 -28 14 -20 12 7 11 34 0 34 -5 0 -11 -6 -14
-14z"/>
<path d="M9670 5665 c0 -11 10 -15 38 -14 20 1 28 4 18 6 -15 4 -16 7 -5 14
10 6 4 9 -18 9 -23 0 -33 -5 -33 -15z"/>
<path d="M9135 5650 c-4 -6 6 -10 24 -10 16 0 33 5 36 10 4 6 -6 10 -24 10
-16 0 -33 -4 -36 -10z"/>
<path d="M8898 5623 c12 -2 30 -2 40 0 9 3 -1 5 -23 4 -22 0 -30 -2 -17 -4z"/>
<path d="M8988 5623 c12 -2 30 -2 40 0 9 3 -1 5 -23 4 -22 0 -30 -2 -17 -4z"/>
<path d="M9853 5623 c9 -2 23 -2 30 0 6 3 -1 5 -18 5 -16 0 -22 -2 -12 -5z"/>
<path d="M10208 5613 c12 -2 30 -2 40 0 9 3 -1 5 -23 4 -22 0 -30 -2 -17 -4z"/>
<path d="M9920 9804 c0 -10 65 -47 198 -111 290 -140 314 -153 344 -183 15
-15 58 -42 95 -59 37 -18 85 -41 106 -52 21 -11 41 -18 44 -15 6 6 -75 57
-159 101 -32 17 -58 35 -58 40 0 6 -42 32 -92 58 -51 25 -176 89 -278 142
-102 52 -188 95 -192 95 -5 0 -8 -7 -8 -16z"/>
<path d="M11101 9187 c15 -12 36 -39 48 -59 23 -38 75 -88 92 -88 12 0 -15 53
-48 97 -13 17 -42 41 -64 52 -51 27 -60 26 -28 -2z"/>
<path d="M11795 9190 c-3 -5 -1 -10 4 -10 6 0 11 5 11 10 0 6 -2 10 -4 10 -3
0 -8 -4 -11 -10z"/>
<path d="M12540 9137 c0 -9 -4 -17 -10 -17 -5 0 -10 5 -10 10 0 6 -4 10 -10
10 -5 0 -7 -7 -4 -15 4 -8 13 -15 20 -15 16 0 30 27 20 37 -3 4 -6 -1 -6 -10z"/>
<path d="M12511 8984 c0 -11 3 -14 6 -6 3 7 2 16 -1 19 -3 4 -6 -2 -5 -13z"/>
<path d="M12451 8954 c0 -11 3 -14 6 -6 3 7 2 16 -1 19 -3 4 -6 -2 -5 -13z"/>
<path d="M12578 8945 c-3 -14 -1 -25 3 -25 5 0 9 11 9 25 0 14 -2 25 -4 25 -2
0 -6 -11 -8 -25z"/>
<path d="M12607 8951 c-4 -17 -3 -21 5 -13 5 5 8 16 6 23 -3 8 -7 3 -11 -10z"/>
<path d="M12630 8935 c0 -15 4 -24 10 -20 6 3 10 12 10 20 0 8 -4 17 -10 20
-6 4 -10 -5 -10 -20z"/>
<path d="M12421 8924 c0 -11 3 -14 6 -6 3 7 2 16 -1 19 -3 4 -6 -2 -5 -13z"/>
<path d="M12362 8900 c0 -14 2 -19 5 -12 2 6 2 18 0 25 -3 6 -5 1 -5 -13z"/>
<path d="M12281 8894 c0 -11 3 -14 6 -6 3 7 2 16 -1 19 -3 4 -6 -2 -5 -13z"/>
<path d="M12331 8874 c0 -11 3 -14 6 -6 3 7 2 16 -1 19 -3 4 -6 -2 -5 -13z"/>
<path d="M12035 8850 c4 -6 11 -8 16 -5 14 9 11 15 -7 15 -8 0 -12 -5 -9 -10z"/>
</g>
</svg>
